<svg width="48" height="16" viewBox="0 0 48 16" fill="none" xmlns="http://www.w3.org/2000/svg">
<path d="M20.86 9.37H17.76L17.17 11H16.19L18.8 4.08H19.83L22.43 11H21.45L20.86 9.37ZM20.6 8.66L19.31 5.1L18.02 8.66H20.6ZM25.8811 5.44C26.5811 5.44 27.1611 5.62667 27.6211 6C28.0811 6.37333 28.3644 6.87333 28.4711 7.5H27.5111C27.4444 7.10667 27.2611 6.8 26.9611 6.58C26.6678 6.35333 26.3011 6.24 25.8611 6.24C25.5411 6.24 25.2478 6.31333 24.9811 6.46C24.7211 6.60667 24.5111 6.83333 24.3511 7.14C24.1911 7.44 24.1111 7.81333 24.1111 8.26C24.1111 8.70667 24.1911 9.08333 24.3511 9.39C24.5111 9.69 24.7211 9.91333 24.9811 10.06C25.2478 10.2067 25.5411 10.28 25.8611 10.28C26.3011 10.28 26.6678 10.1667 26.9611 9.94C27.2611 9.71333 27.4444 9.40333 27.5111 9.01H28.4711C28.3644 9.64333 28.0811 10.1467 27.6211 10.52C27.1611 10.8867 26.5811 11.07 25.8811 11.07C25.3544 11.07 24.8878 10.9567 24.4811 10.73C24.0744 10.5033 23.7544 10.18 23.5211 9.76C23.2944 9.33333 23.1811 8.83333 23.1811 8.26C23.1811 7.68667 23.2944 7.18667 23.5211 6.76C23.7544 6.33333 24.0744 6.00667 24.4811 5.78C24.8878 5.55333 25.3544 5.44 25.8811 5.44ZM32.382 10.2V11H31.702C31.142 11 30.722 10.8667 30.442 10.6C30.1687 10.3333 30.032 9.88667 30.032 9.26V6.3H29.212V5.51H30.032V4.14H30.952V5.51H32.372V6.3H30.952V9.28C30.952 9.63333 31.0154 9.87667 31.142 10.01C31.2754 10.1367 31.502 10.2 31.822 10.2H32.382ZM33.4325 3.9C33.4325 3.73333 33.4892 3.6 33.6025 3.5C33.7158 3.39333 33.8658 3.34 34.0525 3.34C34.2392 3.34 34.3892 3.39333 34.5025 3.5C34.6158 3.6 34.6725 3.73333 34.6725 3.9C34.6725 4.06667 34.6158 4.20333 34.5025 4.31C34.3892 4.41 34.2392 4.46 34.0525 4.46C33.8658 4.46 33.7158 4.41 33.6025 4.31C33.4892 4.20333 33.4325 4.06667 33.4325 3.9ZM34.5025 5.51V11H33.5925V5.51H34.5025ZM38.1955 10.03L39.8955 5.51H40.8755L38.7255 11H37.6455L35.4955 5.51H36.4755L38.1955 10.03ZM46.9187 7.95C46.9187 8.14333 46.9053 8.31 46.8787 8.45H42.4887C42.5087 9.07667 42.6853 9.54667 43.0187 9.86C43.3587 10.1733 43.772 10.33 44.2587 10.33C44.6987 10.33 45.0653 10.22 45.3587 10C45.6587 9.77333 45.842 9.47333 45.9087 9.1H46.8787C46.812 9.48 46.662 9.82 46.4287 10.12C46.202 10.42 45.9053 10.6533 45.5387 10.82C45.172 10.9867 44.7587 11.07 44.2987 11.07C43.772 11.07 43.3053 10.9567 42.8987 10.73C42.492 10.5033 42.172 10.18 41.9387 9.76C41.712 9.33333 41.5987 8.83333 41.5987 8.26C41.5987 7.68667 41.712 7.18667 41.9387 6.76C42.172 6.33333 42.492 6.00667 42.8987 5.78C43.3053 5.55333 43.772 5.44 44.2987 5.44C44.832 5.44 45.2953 5.55333 45.6887 5.78C46.0887 6.00667 46.392 6.31 46.5987 6.69C46.812 7.07 46.9187 7.49 46.9187 7.95ZM45.9987 8.01C46.0187 7.60333 45.952 7.26333 45.7987 6.99C45.6453 6.71667 45.4353 6.51333 45.1687 6.38C44.902 6.24667 44.612 6.18 44.2987 6.18C43.7987 6.18 43.3787 6.33667 43.0387 6.65C42.6987 6.95667 42.5153 7.41 42.4887 8.01H45.9987Z" fill="#192A3E"/>
<circle cx="4" cy="8" r="3" stroke="#FFB946" stroke-width="2"/>
</svg>
