<svg width="74" height="16" viewBox="0 0 74 16" fill="none" xmlns="http://www.w3.org/2000/svg">
<path d="M19.85 3.88C20.71 3.88 21.42 4.09333 21.98 4.52C22.54 4.94 22.9267 5.51667 23.14 6.25H22.18C22 5.78333 21.71 5.41333 21.31 5.14C20.91 4.86 20.42 4.72 19.84 4.72C19.38 4.72 18.9667 4.83333 18.6 5.06C18.24 5.28 17.9533 5.6 17.74 6.02C17.5333 6.43333 17.43 6.92 17.43 7.48C17.43 8.03333 17.5333 8.51667 17.74 8.93C17.9533 9.34333 18.24 9.66333 18.6 9.89C18.9667 10.11 19.38 10.22 19.84 10.22C20.42 10.22 20.91 10.0833 21.31 9.81C21.71 9.53 22 9.15667 22.18 8.69H23.14C22.9267 9.42333 22.54 10.0033 21.98 10.43C21.42 10.85 20.71 11.06 19.85 11.06C19.19 11.06 18.6067 10.91 18.1 10.61C17.5933 10.3033 17.1967 9.88 16.91 9.34C16.63 8.79333 16.49 8.17333 16.49 7.48C16.49 6.78 16.63 6.15667 16.91 5.61C17.1967 5.06333 17.5933 4.64 18.1 4.34C18.6067 4.03333 19.19 3.88 19.85 3.88ZM26.947 5.44C27.4736 5.44 27.9436 5.55333 28.357 5.78C28.777 6.00667 29.1036 6.33333 29.337 6.76C29.577 7.18667 29.697 7.68667 29.697 8.26C29.697 8.83333 29.577 9.33333 29.337 9.76C29.1036 10.18 28.777 10.5033 28.357 10.73C27.9436 10.9567 27.4736 11.07 26.947 11.07C26.4203 11.07 25.947 10.9567 25.527 10.73C25.1136 10.5033 24.787 10.18 24.547 9.76C24.307 9.33333 24.187 8.83333 24.187 8.26C24.187 7.68667 24.307 7.18667 24.547 6.76C24.787 6.33333 25.1136 6.00667 25.527 5.78C25.947 5.55333 26.4203 5.44 26.947 5.44ZM26.947 6.24C26.6203 6.24 26.317 6.31333 26.037 6.46C25.7636 6.60667 25.5403 6.83333 25.367 7.14C25.2003 7.44 25.117 7.81333 25.117 8.26C25.117 8.7 25.2003 9.07333 25.367 9.38C25.5403 9.68 25.7636 9.90333 26.037 10.05C26.317 10.1967 26.6203 10.27 26.947 10.27C27.2736 10.27 27.5736 10.1967 27.847 10.05C28.127 9.90333 28.3503 9.68 28.517 9.38C28.6903 9.07333 28.777 8.7 28.777 8.26C28.777 7.81333 28.6903 7.44 28.517 7.14C28.3503 6.83333 28.127 6.60667 27.847 6.46C27.5736 6.31333 27.2736 6.24 26.947 6.24ZM37.7327 5.42C38.3727 5.42 38.8861 5.62667 39.2727 6.04C39.6661 6.44667 39.8627 7.03667 39.8627 7.81V11H38.9527V7.89C38.9527 7.35 38.8194 6.93667 38.5527 6.65C38.2927 6.36333 37.9327 6.22 37.4727 6.22C36.9927 6.22 36.6061 6.38 36.3127 6.7C36.0261 7.01333 35.8827 7.47667 35.8827 8.09V11H34.9727V7.89C34.9727 7.35 34.8394 6.93667 34.5727 6.65C34.3061 6.36333 33.9461 6.22 33.4927 6.22C33.0061 6.22 32.6161 6.38 32.3227 6.7C32.0361 7.01333 31.8927 7.47667 31.8927 8.09V11H30.9827V5.51H31.8927V6.76C32.0261 6.32667 32.2627 5.99667 32.6027 5.77C32.9494 5.53667 33.3461 5.42 33.7927 5.42C34.2594 5.42 34.6627 5.54 35.0027 5.78C35.3494 6.01333 35.5961 6.36 35.7427 6.82C35.8961 6.37333 36.1527 6.03 36.5127 5.79C36.8727 5.54333 37.2794 5.42 37.7327 5.42ZM44.4057 5.44C44.8924 5.44 45.3257 5.55333 45.7057 5.78C46.0857 6.00667 46.3824 6.33333 46.5957 6.76C46.8157 7.18667 46.9257 7.68667 46.9257 8.26C46.9257 8.83333 46.8157 9.33333 46.5957 9.76C46.3824 10.18 46.0857 10.5033 45.7057 10.73C45.3257 10.9567 44.8924 11.07 44.4057 11.07C43.8724 11.07 43.419 10.9367 43.0457 10.67C42.679 10.3967 42.4257 10.04 42.2857 9.6V13.6H41.3757V5.51H42.2857V6.91C42.4257 6.47 42.679 6.11667 43.0457 5.85C43.419 5.57667 43.8724 5.44 44.4057 5.44ZM44.1457 6.25C43.7924 6.25 43.4724 6.33333 43.1857 6.5C42.899 6.66 42.6757 6.89333 42.5157 7.2C42.3557 7.50667 42.2757 7.86 42.2757 8.26C42.2757 8.66 42.3557 9.01333 42.5157 9.32C42.6757 9.62 42.899 9.85333 43.1857 10.02C43.4724 10.1867 43.7924 10.27 44.1457 10.27C44.7124 10.27 45.1624 10.0933 45.4957 9.74C45.8357 9.38 46.0057 8.88667 46.0057 8.26C46.0057 7.63333 45.8357 7.14333 45.4957 6.79C45.1624 6.43 44.7124 6.25 44.1457 6.25ZM49.124 3.6V11H48.214V3.6H49.124ZM55.737 7.95C55.737 8.14333 55.7237 8.31 55.697 8.45H51.307C51.327 9.07667 51.5037 9.54667 51.837 9.86C52.177 10.1733 52.5904 10.33 53.077 10.33C53.517 10.33 53.8837 10.22 54.177 10C54.477 9.77333 54.6604 9.47333 54.727 9.1H55.697C55.6304 9.48 55.4804 9.82 55.247 10.12C55.0204 10.42 54.7237 10.6533 54.357 10.82C53.9904 10.9867 53.577 11.07 53.117 11.07C52.5904 11.07 52.1237 10.9567 51.717 10.73C51.3104 10.5033 50.9904 10.18 50.757 9.76C50.5304 9.33333 50.417 8.83333 50.417 8.26C50.417 7.68667 50.5304 7.18667 50.757 6.76C50.9904 6.33333 51.3104 6.00667 51.717 5.78C52.1237 5.55333 52.5904 5.44 53.117 5.44C53.6504 5.44 54.1137 5.55333 54.507 5.78C54.907 6.00667 55.2104 6.31 55.417 6.69C55.6304 7.07 55.737 7.49 55.737 7.95ZM54.817 8.01C54.837 7.60333 54.7704 7.26333 54.617 6.99C54.4637 6.71667 54.2537 6.51333 53.987 6.38C53.7204 6.24667 53.4304 6.18 53.117 6.18C52.617 6.18 52.197 6.33667 51.857 6.65C51.517 6.95667 51.3337 7.41 51.307 8.01H54.817ZM59.6473 10.2V11H58.9673C58.4073 11 57.9873 10.8667 57.7073 10.6C57.4339 10.3333 57.2973 9.88667 57.2973 9.26V6.3H56.4773V5.51H57.2973V4.14H58.2173V5.51H59.6373V6.3H58.2173V9.28C58.2173 9.63333 58.2806 9.87667 58.4073 10.01C58.5406 10.1367 58.7673 10.2 59.0873 10.2H59.6473ZM65.9077 7.95C65.9077 8.14333 65.8944 8.31 65.8677 8.45H61.4777C61.4977 9.07667 61.6744 9.54667 62.0077 9.86C62.3477 10.1733 62.7611 10.33 63.2477 10.33C63.6877 10.33 64.0544 10.22 64.3477 10C64.6477 9.77333 64.8311 9.47333 64.8977 9.1H65.8677C65.8011 9.48 65.6511 9.82 65.4177 10.12C65.1911 10.42 64.8944 10.6533 64.5277 10.82C64.1611 10.9867 63.7477 11.07 63.2877 11.07C62.7611 11.07 62.2944 10.9567 61.8877 10.73C61.4811 10.5033 61.1611 10.18 60.9277 9.76C60.7011 9.33333 60.5877 8.83333 60.5877 8.26C60.5877 7.68667 60.7011 7.18667 60.9277 6.76C61.1611 6.33333 61.4811 6.00667 61.8877 5.78C62.2944 5.55333 62.7611 5.44 63.2877 5.44C63.8211 5.44 64.2844 5.55333 64.6777 5.78C65.0777 6.00667 65.3811 6.31 65.5877 6.69C65.8011 7.07 65.9077 7.49 65.9077 7.95ZM64.9877 8.01C65.0077 7.60333 64.9411 7.26333 64.7877 6.99C64.6344 6.71667 64.4244 6.51333 64.1577 6.38C63.8911 6.24667 63.6011 6.18 63.2877 6.18C62.7877 6.18 62.3677 6.33667 62.0277 6.65C61.6877 6.95667 61.5044 7.41 61.4777 8.01H64.9877ZM69.448 5.44C69.9813 5.44 70.4313 5.57333 70.798 5.84C71.1713 6.10667 71.4313 6.46333 71.578 6.91V3.6H72.488V11H71.578V9.6C71.4313 10.0467 71.1713 10.4033 70.798 10.67C70.4313 10.9367 69.9813 11.07 69.448 11.07C68.9613 11.07 68.528 10.9567 68.148 10.73C67.768 10.5033 67.468 10.18 67.248 9.76C67.0346 9.33333 66.928 8.83333 66.928 8.26C66.928 7.68667 67.0346 7.18667 67.248 6.76C67.468 6.33333 67.768 6.00667 68.148 5.78C68.528 5.55333 68.9613 5.44 69.448 5.44ZM69.708 6.25C69.148 6.25 68.698 6.43 68.358 6.79C68.0246 7.14333 67.858 7.63333 67.858 8.26C67.858 8.88667 68.0246 9.38 68.358 9.74C68.698 10.0933 69.148 10.27 69.708 10.27C70.068 10.27 70.388 10.1867 70.668 10.02C70.9546 9.85333 71.178 9.62 71.338 9.32C71.498 9.01333 71.578 8.66 71.578 8.26C71.578 7.86 71.498 7.50667 71.338 7.2C71.178 6.89333 70.9546 6.66 70.668 6.5C70.388 6.33333 70.068 6.25 69.708 6.25Z" fill="#192A3E"/>
<circle cx="4" cy="8" r="3" stroke="#2ED47A" stroke-width="2"/>
</svg>
