<svg width="48" height="16" viewBox="0 0 48 16" fill="none" xmlns="http://www.w3.org/2000/svg">
<path d="M17.64 4.69V7.1H20.32V7.8H17.64V10.26H20.62V11H16.73V3.95H20.62V4.69H17.64ZM24.7786 5.42C25.4186 5.42 25.9353 5.62667 26.3286 6.04C26.7219 6.44667 26.9186 7.03667 26.9186 7.81V11H26.0086V7.89C26.0086 7.34333 25.8686 6.92333 25.5886 6.63C25.3086 6.33667 24.9286 6.19 24.4486 6.19C23.9486 6.19 23.5486 6.35333 23.2486 6.68C22.9486 7 22.7986 7.47 22.7986 8.09V11H21.8886V5.51H22.7986V6.81C22.9386 6.36333 23.1853 6.02 23.5386 5.78C23.8986 5.54 24.3119 5.42 24.7786 5.42ZM30.6644 5.44C31.1977 5.44 31.6477 5.57333 32.0144 5.84C32.3877 6.10667 32.6477 6.46333 32.7944 6.91V3.6H33.7044V11H32.7944V9.6C32.6477 10.0467 32.3877 10.4033 32.0144 10.67C31.6477 10.9367 31.1977 11.07 30.6644 11.07C30.1777 11.07 29.7444 10.9567 29.3644 10.73C28.9844 10.5033 28.6844 10.18 28.4644 9.76C28.251 9.33333 28.1444 8.83333 28.1444 8.26C28.1444 7.68667 28.251 7.18667 28.4644 6.76C28.6844 6.33333 28.9844 6.00667 29.3644 5.78C29.7444 5.55333 30.1777 5.44 30.6644 5.44ZM30.9244 6.25C30.3644 6.25 29.9144 6.43 29.5744 6.79C29.241 7.14333 29.0744 7.63333 29.0744 8.26C29.0744 8.88667 29.241 9.38 29.5744 9.74C29.9144 10.0933 30.3644 10.27 30.9244 10.27C31.2844 10.27 31.6044 10.1867 31.8844 10.02C32.171 9.85333 32.3944 9.62 32.5544 9.32C32.7144 9.01333 32.7944 8.66 32.7944 8.26C32.7944 7.86 32.7144 7.50667 32.5544 7.2C32.3944 6.89333 32.171 6.66 31.8844 6.5C31.6044 6.33333 31.2844 6.25 30.9244 6.25ZM40.3027 7.95C40.3027 8.14333 40.2893 8.31 40.2627 8.45H35.8727C35.8927 9.07667 36.0693 9.54667 36.4027 9.86C36.7427 10.1733 37.156 10.33 37.6427 10.33C38.0827 10.33 38.4493 10.22 38.7427 10C39.0427 9.77333 39.226 9.47333 39.2927 9.1H40.2627C40.196 9.48 40.046 9.82 39.8127 10.12C39.586 10.42 39.2893 10.6533 38.9227 10.82C38.556 10.9867 38.1427 11.07 37.6827 11.07C37.156 11.07 36.6893 10.9567 36.2827 10.73C35.876 10.5033 35.556 10.18 35.3227 9.76C35.096 9.33333 34.9827 8.83333 34.9827 8.26C34.9827 7.68667 35.096 7.18667 35.3227 6.76C35.556 6.33333 35.876 6.00667 36.2827 5.78C36.6893 5.55333 37.156 5.44 37.6827 5.44C38.216 5.44 38.6793 5.55333 39.0727 5.78C39.4727 6.00667 39.776 6.31 39.9827 6.69C40.196 7.07 40.3027 7.49 40.3027 7.95ZM39.3827 8.01C39.4027 7.60333 39.336 7.26333 39.1827 6.99C39.0293 6.71667 38.8193 6.51333 38.5527 6.38C38.286 6.24667 37.996 6.18 37.6827 6.18C37.1827 6.18 36.7627 6.33667 36.4227 6.65C36.0827 6.95667 35.8993 7.41 35.8727 8.01H39.3827ZM43.8429 5.44C44.3762 5.44 44.8262 5.57333 45.1929 5.84C45.5662 6.10667 45.8262 6.46333 45.9729 6.91V3.6H46.8829V11H45.9729V9.6C45.8262 10.0467 45.5662 10.4033 45.1929 10.67C44.8262 10.9367 44.3762 11.07 43.8429 11.07C43.3562 11.07 42.9229 10.9567 42.5429 10.73C42.1629 10.5033 41.8629 10.18 41.6429 9.76C41.4296 9.33333 41.3229 8.83333 41.3229 8.26C41.3229 7.68667 41.4296 7.18667 41.6429 6.76C41.8629 6.33333 42.1629 6.00667 42.5429 5.78C42.9229 5.55333 43.3562 5.44 43.8429 5.44ZM44.1029 6.25C43.5429 6.25 43.0929 6.43 42.7529 6.79C42.4196 7.14333 42.2529 7.63333 42.2529 8.26C42.2529 8.88667 42.4196 9.38 42.7529 9.74C43.0929 10.0933 43.5429 10.27 44.1029 10.27C44.4629 10.27 44.7829 10.1867 45.0629 10.02C45.3496 9.85333 45.5729 9.62 45.7329 9.32C45.8929 9.01333 45.9729 8.66 45.9729 8.26C45.9729 7.86 45.8929 7.50667 45.7329 7.2C45.5729 6.89333 45.3496 6.66 45.0629 6.5C44.7829 6.33333 44.4629 6.25 44.1029 6.25Z" fill="#192A3E"/>
<circle cx="4" cy="8" r="3" stroke="#F7685B" stroke-width="2"/>
</svg>
