<svg width="165" height="16" viewBox="0 0 165 16" fill="none" xmlns="http://www.w3.org/2000/svg">
<path d="M19.85 3.88C20.71 3.88 21.42 4.09333 21.98 4.52C22.54 4.94 22.9267 5.51667 23.14 6.25H22.18C22 5.78333 21.71 5.41333 21.31 5.14C20.91 4.86 20.42 4.72 19.84 4.72C19.38 4.72 18.9667 4.83333 18.6 5.06C18.24 5.28 17.9533 5.6 17.74 6.02C17.5333 6.43333 17.43 6.92 17.43 7.48C17.43 8.03333 17.5333 8.51667 17.74 8.93C17.9533 9.34333 18.24 9.66333 18.6 9.89C18.9667 10.11 19.38 10.22 19.84 10.22C20.42 10.22 20.91 10.0833 21.31 9.81C21.71 9.53 22 9.15667 22.18 8.69H23.14C22.9267 9.42333 22.54 10.0033 21.98 10.43C21.42 10.85 20.71 11.06 19.85 11.06C19.19 11.06 18.6067 10.91 18.1 10.61C17.5933 10.3033 17.1967 9.88 16.91 9.34C16.63 8.79333 16.49 8.17333 16.49 7.48C16.49 6.78 16.63 6.15667 16.91 5.61C17.1967 5.06333 17.5933 4.64 18.1 4.34C18.6067 4.03333 19.19 3.88 19.85 3.88ZM25.367 3.6V11H24.457V3.6H25.367ZM29.42 5.44C29.9467 5.44 30.4167 5.55333 30.83 5.78C31.25 6.00667 31.5767 6.33333 31.81 6.76C32.05 7.18667 32.17 7.68667 32.17 8.26C32.17 8.83333 32.05 9.33333 31.81 9.76C31.5767 10.18 31.25 10.5033 30.83 10.73C30.4167 10.9567 29.9467 11.07 29.42 11.07C28.8933 11.07 28.42 10.9567 28 10.73C27.5867 10.5033 27.26 10.18 27.02 9.76C26.78 9.33333 26.66 8.83333 26.66 8.26C26.66 7.68667 26.78 7.18667 27.02 6.76C27.26 6.33333 27.5867 6.00667 28 5.78C28.42 5.55333 28.8933 5.44 29.42 5.44ZM29.42 6.24C29.0933 6.24 28.79 6.31333 28.51 6.46C28.2367 6.60667 28.0133 6.83333 27.84 7.14C27.6733 7.44 27.59 7.81333 27.59 8.26C27.59 8.7 27.6733 9.07333 27.84 9.38C28.0133 9.68 28.2367 9.90333 28.51 10.05C28.79 10.1967 29.0933 10.27 29.42 10.27C29.7467 10.27 30.0467 10.1967 30.32 10.05C30.6 9.90333 30.8233 9.68 30.99 9.38C31.1633 9.07333 31.25 8.7 31.25 8.26C31.25 7.81333 31.1633 7.44 30.99 7.14C30.8233 6.83333 30.6 6.60667 30.32 6.46C30.0467 6.31333 29.7467 6.24 29.42 6.24ZM35.1758 5.44C35.7958 5.44 36.2924 5.60333 36.6658 5.93C37.0458 6.25 37.2758 6.68333 37.3558 7.23H36.4858C36.4458 6.90333 36.3091 6.63667 36.0758 6.43C35.8491 6.21667 35.5424 6.11 35.1558 6.11C34.8291 6.11 34.5724 6.19 34.3858 6.35C34.2058 6.50333 34.1158 6.71333 34.1158 6.98C34.1158 7.18 34.1758 7.34333 34.2958 7.47C34.4224 7.59 34.5758 7.68333 34.7558 7.75C34.9424 7.81 35.1958 7.87667 35.5158 7.95C35.9224 8.04333 36.2491 8.14 36.4958 8.24C36.7491 8.33333 36.9624 8.48667 37.1358 8.7C37.3158 8.91333 37.4058 9.2 37.4058 9.56C37.4058 10.0067 37.2358 10.37 36.8958 10.65C36.5624 10.93 36.1158 11.07 35.5558 11.07C34.9024 11.07 34.3691 10.9133 33.9558 10.6C33.5424 10.2867 33.2991 9.85 33.2258 9.29H34.1058C34.1391 9.62333 34.2824 9.89333 34.5358 10.1C34.7958 10.3067 35.1358 10.41 35.5558 10.41C35.8691 10.41 36.1124 10.33 36.2858 10.17C36.4658 10.01 36.5558 9.8 36.5558 9.54C36.5558 9.32667 36.4924 9.15667 36.3658 9.03C36.2391 8.90333 36.0824 8.80667 35.8958 8.74C35.7091 8.67333 35.4524 8.60333 35.1258 8.53C34.7191 8.43667 34.3924 8.34333 34.1458 8.25C33.9058 8.15667 33.6991 8.01 33.5258 7.81C33.3591 7.60333 33.2758 7.32667 33.2758 6.98C33.2758 6.52 33.4458 6.15 33.7858 5.87C34.1258 5.58333 34.5891 5.44 35.1758 5.44ZM43.7718 7.95C43.7718 8.14333 43.7585 8.31 43.7318 8.45H39.3418C39.3618 9.07667 39.5385 9.54667 39.8718 9.86C40.2118 10.1733 40.6251 10.33 41.1118 10.33C41.5518 10.33 41.9185 10.22 42.2118 10C42.5118 9.77333 42.6951 9.47333 42.7618 9.1H43.7318C43.6651 9.48 43.5151 9.82 43.2818 10.12C43.0551 10.42 42.7585 10.6533 42.3918 10.82C42.0251 10.9867 41.6118 11.07 41.1518 11.07C40.6251 11.07 40.1585 10.9567 39.7518 10.73C39.3451 10.5033 39.0251 10.18 38.7918 9.76C38.5651 9.33333 38.4518 8.83333 38.4518 8.26C38.4518 7.68667 38.5651 7.18667 38.7918 6.76C39.0251 6.33333 39.3451 6.00667 39.7518 5.78C40.1585 5.55333 40.6251 5.44 41.1518 5.44C41.6851 5.44 42.1485 5.55333 42.5418 5.78C42.9418 6.00667 43.2451 6.31 43.4518 6.69C43.6651 7.07 43.7718 7.49 43.7718 7.95ZM42.8518 8.01C42.8718 7.60333 42.8051 7.26333 42.6518 6.99C42.4985 6.71667 42.2885 6.51333 42.0218 6.38C41.7551 6.24667 41.4651 6.18 41.1518 6.18C40.6518 6.18 40.2318 6.33667 39.8918 6.65C39.5518 6.95667 39.3685 7.41 39.3418 8.01H42.8518ZM47.312 5.44C47.8454 5.44 48.2954 5.57333 48.662 5.84C49.0354 6.10667 49.2954 6.46333 49.442 6.91V3.6H50.352V11H49.442V9.6C49.2954 10.0467 49.0354 10.4033 48.662 10.67C48.2954 10.9367 47.8454 11.07 47.312 11.07C46.8254 11.07 46.392 10.9567 46.012 10.73C45.632 10.5033 45.332 10.18 45.112 9.76C44.8987 9.33333 44.792 8.83333 44.792 8.26C44.792 7.68667 44.8987 7.18667 45.112 6.76C45.332 6.33333 45.632 6.00667 46.012 5.78C46.392 5.55333 46.8254 5.44 47.312 5.44ZM47.572 6.25C47.012 6.25 46.562 6.43 46.222 6.79C45.8887 7.14333 45.722 7.63333 45.722 8.26C45.722 8.88667 45.8887 9.38 46.222 9.74C46.562 10.0933 47.012 10.27 47.572 10.27C47.932 10.27 48.252 10.1867 48.532 10.02C48.8187 9.85333 49.042 9.62 49.202 9.32C49.362 9.01333 49.442 8.66 49.442 8.26C49.442 7.86 49.362 7.50667 49.202 7.2C49.042 6.89333 48.8187 6.66 48.532 6.5C48.252 6.33333 47.932 6.25 47.572 6.25ZM56.721 5.44C57.2543 5.44 57.7043 5.57333 58.071 5.84C58.4443 6.10667 58.7043 6.46333 58.851 6.91V3.6H59.761V11H58.851V9.6C58.7043 10.0467 58.4443 10.4033 58.071 10.67C57.7043 10.9367 57.2543 11.07 56.721 11.07C56.2343 11.07 55.801 10.9567 55.421 10.73C55.041 10.5033 54.741 10.18 54.521 9.76C54.3077 9.33333 54.201 8.83333 54.201 8.26C54.201 7.68667 54.3077 7.18667 54.521 6.76C54.741 6.33333 55.041 6.00667 55.421 5.78C55.801 5.55333 56.2343 5.44 56.721 5.44ZM56.981 6.25C56.421 6.25 55.971 6.43 55.631 6.79C55.2977 7.14333 55.131 7.63333 55.131 8.26C55.131 8.88667 55.2977 9.38 55.631 9.74C55.971 10.0933 56.421 10.27 56.981 10.27C57.341 10.27 57.661 10.1867 57.941 10.02C58.2277 9.85333 58.451 9.62 58.611 9.32C58.771 9.01333 58.851 8.66 58.851 8.26C58.851 7.86 58.771 7.50667 58.611 7.2C58.451 6.89333 58.2277 6.66 57.941 6.5C57.661 6.33333 57.341 6.25 56.981 6.25ZM66.3593 7.95C66.3593 8.14333 66.346 8.31 66.3193 8.45H61.9293C61.9493 9.07667 62.126 9.54667 62.4593 9.86C62.7993 10.1733 63.2126 10.33 63.6993 10.33C64.1393 10.33 64.506 10.22 64.7993 10C65.0993 9.77333 65.2826 9.47333 65.3493 9.1H66.3193C66.2526 9.48 66.1026 9.82 65.8693 10.12C65.6426 10.42 65.346 10.6533 64.9793 10.82C64.6126 10.9867 64.1993 11.07 63.7393 11.07C63.2126 11.07 62.746 10.9567 62.3393 10.73C61.9326 10.5033 61.6126 10.18 61.3793 9.76C61.1526 9.33333 61.0393 8.83333 61.0393 8.26C61.0393 7.68667 61.1526 7.18667 61.3793 6.76C61.6126 6.33333 61.9326 6.00667 62.3393 5.78C62.746 5.55333 63.2126 5.44 63.7393 5.44C64.2726 5.44 64.736 5.55333 65.1293 5.78C65.5293 6.00667 65.8326 6.31 66.0393 6.69C66.2526 7.07 66.3593 7.49 66.3593 7.95ZM65.4393 8.01C65.4593 7.60333 65.3926 7.26333 65.2393 6.99C65.086 6.71667 64.876 6.51333 64.6093 6.38C64.3426 6.24667 64.0526 6.18 63.7393 6.18C63.2393 6.18 62.8193 6.33667 62.4793 6.65C62.1393 6.95667 61.956 7.41 61.9293 8.01H65.4393ZM69.8995 5.44C70.4329 5.44 70.8829 5.57333 71.2495 5.84C71.6229 6.10667 71.8829 6.46333 72.0295 6.91V5.51H72.9395V11H72.0295V9.6C71.8829 10.0467 71.6229 10.4033 71.2495 10.67C70.8829 10.9367 70.4329 11.07 69.8995 11.07C69.4129 11.07 68.9795 10.9567 68.5995 10.73C68.2195 10.5033 67.9195 10.18 67.6995 9.76C67.4862 9.33333 67.3795 8.83333 67.3795 8.26C67.3795 7.68667 67.4862 7.18667 67.6995 6.76C67.9195 6.33333 68.2195 6.00667 68.5995 5.78C68.9795 5.55333 69.4129 5.44 69.8995 5.44ZM70.1595 6.25C69.5995 6.25 69.1495 6.43 68.8095 6.79C68.4762 7.14333 68.3095 7.63333 68.3095 8.26C68.3095 8.88667 68.4762 9.38 68.8095 9.74C69.1495 10.0933 69.5995 10.27 70.1595 10.27C70.5195 10.27 70.8395 10.1867 71.1195 10.02C71.4062 9.85333 71.6295 9.62 71.7895 9.32C71.9495 9.01333 72.0295 8.66 72.0295 8.26C72.0295 7.86 71.9495 7.50667 71.7895 7.2C71.6295 6.89333 71.4062 6.66 71.1195 6.5C70.8395 6.33333 70.5195 6.25 70.1595 6.25ZM75.3978 3.6V11H74.4878V3.6H75.3978ZM78.6809 5.44C79.3009 5.44 79.7975 5.60333 80.1709 5.93C80.5509 6.25 80.7809 6.68333 80.8609 7.23H79.9909C79.9509 6.90333 79.8142 6.63667 79.5809 6.43C79.3542 6.21667 79.0475 6.11 78.6609 6.11C78.3342 6.11 78.0775 6.19 77.8909 6.35C77.7109 6.50333 77.6209 6.71333 77.6209 6.98C77.6209 7.18 77.6809 7.34333 77.8009 7.47C77.9275 7.59 78.0809 7.68333 78.2609 7.75C78.4475 7.81 78.7009 7.87667 79.0209 7.95C79.4275 8.04333 79.7542 8.14 80.0009 8.24C80.2542 8.33333 80.4675 8.48667 80.6409 8.7C80.8209 8.91333 80.9109 9.2 80.9109 9.56C80.9109 10.0067 80.7409 10.37 80.4009 10.65C80.0675 10.93 79.6209 11.07 79.0609 11.07C78.4075 11.07 77.8742 10.9133 77.4609 10.6C77.0475 10.2867 76.8042 9.85 76.7309 9.29H77.6109C77.6442 9.62333 77.7875 9.89333 78.0409 10.1C78.3009 10.3067 78.6409 10.41 79.0609 10.41C79.3742 10.41 79.6175 10.33 79.7909 10.17C79.9709 10.01 80.0609 9.8 80.0609 9.54C80.0609 9.32667 79.9975 9.15667 79.8709 9.03C79.7442 8.90333 79.5875 8.80667 79.4009 8.74C79.2142 8.67333 78.9575 8.60333 78.6309 8.53C78.2242 8.43667 77.8975 8.34333 77.6509 8.25C77.4109 8.15667 77.2042 8.01 77.0309 7.81C76.8642 7.60333 76.7809 7.32667 76.7809 6.98C76.7809 6.52 76.9509 6.15 77.2909 5.87C77.6309 5.58333 78.0942 5.44 78.6809 5.44Z" fill="#192A3E"/>
<circle cx="4" cy="8" r="3" stroke="#109CF1" stroke-width="2"/>
</svg>
