<svg width="118" height="20" viewBox="0 0 118 20" fill="none" xmlns="http://www.w3.org/2000/svg">
<path d="M39.26 8.06C39.028 7.572 38.692 7.196 38.252 6.932C37.812 6.66 37.3 6.524 36.716 6.524C36.132 6.524 35.604 6.66 35.132 6.932C34.668 7.196 34.3 7.58 34.028 8.084C33.764 8.58 33.632 9.156 33.632 9.812C33.632 10.468 33.764 11.044 34.028 11.54C34.3 12.036 34.668 12.42 35.132 12.692C35.604 12.956 36.132 13.088 36.716 13.088C37.532 13.088 38.204 12.844 38.732 12.356C39.26 11.868 39.568 11.208 39.656 10.376H36.32V9.488H40.82V10.328C40.756 11.016 40.54 11.648 40.172 12.224C39.804 12.792 39.32 13.244 38.72 13.58C38.12 13.908 37.452 14.072 36.716 14.072C35.94 14.072 35.232 13.892 34.592 13.532C33.952 13.164 33.444 12.656 33.068 12.008C32.7 11.36 32.516 10.628 32.516 9.812C32.516 8.996 32.7 8.264 33.068 7.616C33.444 6.96 33.952 6.452 34.592 6.092C35.232 5.724 35.94 5.54 36.716 5.54C37.604 5.54 38.388 5.76 39.068 6.2C39.756 6.64 40.256 7.26 40.568 8.06H39.26ZM43.4758 5.12V14H42.3838V5.12H43.4758ZM48.325 14.108C47.709 14.108 47.149 13.968 46.645 13.688C46.149 13.408 45.757 13.012 45.469 12.5C45.189 11.98 45.049 11.38 45.049 10.7C45.049 10.028 45.193 9.436 45.481 8.924C45.777 8.404 46.177 8.008 46.681 7.736C47.185 7.456 47.749 7.316 48.373 7.316C48.997 7.316 49.561 7.456 50.065 7.736C50.569 8.008 50.965 8.4 51.253 8.912C51.549 9.424 51.697 10.02 51.697 10.7C51.697 11.38 51.545 11.98 51.241 12.5C50.945 13.012 50.541 13.408 50.029 13.688C49.517 13.968 48.949 14.108 48.325 14.108ZM48.325 13.148C48.717 13.148 49.085 13.056 49.429 12.872C49.773 12.688 50.049 12.412 50.257 12.044C50.473 11.676 50.581 11.228 50.581 10.7C50.581 10.172 50.477 9.724 50.269 9.356C50.061 8.988 49.789 8.716 49.453 8.54C49.117 8.356 48.753 8.264 48.361 8.264C47.961 8.264 47.593 8.356 47.257 8.54C46.929 8.716 46.665 8.988 46.465 9.356C46.265 9.724 46.165 10.172 46.165 10.7C46.165 11.236 46.261 11.688 46.453 12.056C46.653 12.424 46.917 12.7 47.245 12.884C47.573 13.06 47.933 13.148 48.325 13.148ZM54.3448 8.648C54.5688 8.256 54.8968 7.936 55.3288 7.688C55.7608 7.44 56.2528 7.316 56.8048 7.316C57.3968 7.316 57.9288 7.456 58.4008 7.736C58.8728 8.016 59.2448 8.412 59.5168 8.924C59.7888 9.428 59.9248 10.016 59.9248 10.688C59.9248 11.352 59.7888 11.944 59.5168 12.464C59.2448 12.984 58.8688 13.388 58.3888 13.676C57.9168 13.964 57.3888 14.108 56.8048 14.108C56.2368 14.108 55.7368 13.984 55.3048 13.736C54.8808 13.488 54.5608 13.172 54.3448 12.788V14H53.2528V5.12H54.3448V8.648ZM58.8088 10.688C58.8088 10.192 58.7088 9.76 58.5088 9.392C58.3088 9.024 58.0368 8.744 57.6928 8.552C57.3568 8.36 56.9848 8.264 56.5768 8.264C56.1768 8.264 55.8048 8.364 55.4608 8.564C55.1248 8.756 54.8528 9.04 54.6448 9.416C54.4448 9.784 54.3448 10.212 54.3448 10.7C54.3448 11.196 54.4448 11.632 54.6448 12.008C54.8528 12.376 55.1248 12.66 55.4608 12.86C55.8048 13.052 56.1768 13.148 56.5768 13.148C56.9848 13.148 57.3568 13.052 57.6928 12.86C58.0368 12.66 58.3088 12.376 58.5088 12.008C58.7088 11.632 58.8088 11.192 58.8088 10.688ZM61.0741 10.688C61.0741 10.016 61.2101 9.428 61.4821 8.924C61.7541 8.412 62.1261 8.016 62.5981 7.736C63.0781 7.456 63.6101 7.316 64.1941 7.316C64.7701 7.316 65.2701 7.44 65.6941 7.688C66.1181 7.936 66.4341 8.248 66.6421 8.624V7.424H67.7461V14H66.6421V12.776C66.4261 13.16 66.1021 13.48 65.6701 13.736C65.2461 13.984 64.7501 14.108 64.1821 14.108C63.5981 14.108 63.0701 13.964 62.5981 13.676C62.1261 13.388 61.7541 12.984 61.4821 12.464C61.2101 11.944 61.0741 11.352 61.0741 10.688ZM66.6421 10.7C66.6421 10.204 66.5421 9.772 66.3421 9.404C66.1421 9.036 65.8701 8.756 65.5261 8.564C65.1901 8.364 64.8181 8.264 64.4101 8.264C64.0021 8.264 63.6301 8.36 63.2941 8.552C62.9581 8.744 62.6901 9.024 62.4901 9.392C62.2901 9.76 62.1901 10.192 62.1901 10.688C62.1901 11.192 62.2901 11.632 62.4901 12.008C62.6901 12.376 62.9581 12.66 63.2941 12.86C63.6301 13.052 64.0021 13.148 64.4101 13.148C64.8181 13.148 65.1901 13.052 65.5261 12.86C65.8701 12.66 66.1421 12.376 66.3421 12.008C66.5421 11.632 66.6421 11.196 66.6421 10.7ZM70.8035 5.12V14H69.7115V5.12H70.8035ZM78.4318 14.108C77.9278 14.108 77.4758 14.024 77.0758 13.856C76.6758 13.68 76.3598 13.44 76.1278 13.136C75.8958 12.824 75.7678 12.468 75.7438 12.068H76.8718C76.9038 12.396 77.0558 12.664 77.3278 12.872C77.6078 13.08 77.9718 13.184 78.4198 13.184C78.8358 13.184 79.1638 13.092 79.4038 12.908C79.6438 12.724 79.7638 12.492 79.7638 12.212C79.7638 11.924 79.6358 11.712 79.3798 11.576C79.1238 11.432 78.7278 11.292 78.1918 11.156C77.7038 11.028 77.3038 10.9 76.9918 10.772C76.6878 10.636 76.4238 10.44 76.1998 10.184C75.9838 9.92 75.8758 9.576 75.8758 9.152C75.8758 8.816 75.9758 8.508 76.1758 8.228C76.3758 7.948 76.6598 7.728 77.0278 7.568C77.3958 7.4 77.8158 7.316 78.2878 7.316C79.0158 7.316 79.6038 7.5 80.0518 7.868C80.4998 8.236 80.7398 8.74 80.7718 9.38H79.6798C79.6558 9.036 79.5158 8.76 79.2598 8.552C79.0118 8.344 78.6758 8.24 78.2518 8.24C77.8598 8.24 77.5478 8.324 77.3158 8.492C77.0838 8.66 76.9678 8.88 76.9678 9.152C76.9678 9.368 77.0358 9.548 77.1718 9.692C77.3158 9.828 77.4918 9.94 77.6998 10.028C77.9158 10.108 78.2118 10.2 78.5878 10.304C79.0598 10.432 79.4438 10.56 79.7398 10.688C80.0358 10.808 80.2878 10.992 80.4958 11.24C80.7118 11.488 80.8238 11.812 80.8318 12.212C80.8318 12.572 80.7318 12.896 80.5318 13.184C80.3318 13.472 80.0478 13.7 79.6798 13.868C79.3198 14.028 78.9038 14.108 78.4318 14.108ZM88.4934 10.46C88.4934 10.668 88.4814 10.888 88.4574 11.12H83.2014C83.2414 11.768 83.4614 12.276 83.8614 12.644C84.2694 13.004 84.7614 13.184 85.3374 13.184C85.8094 13.184 86.2014 13.076 86.5134 12.86C86.8334 12.636 87.0574 12.34 87.1854 11.972H88.3614C88.1854 12.604 87.8334 13.12 87.3054 13.52C86.7774 13.912 86.1214 14.108 85.3374 14.108C84.7134 14.108 84.1534 13.968 83.6574 13.688C83.1694 13.408 82.7854 13.012 82.5054 12.5C82.2254 11.98 82.0854 11.38 82.0854 10.7C82.0854 10.02 82.2214 9.424 82.4934 8.912C82.7654 8.4 83.1454 8.008 83.6334 7.736C84.1294 7.456 84.6974 7.316 85.3374 7.316C85.9614 7.316 86.5134 7.452 86.9934 7.724C87.4734 7.996 87.8414 8.372 88.0974 8.852C88.3614 9.324 88.4934 9.86 88.4934 10.46ZM87.3654 10.232C87.3654 9.816 87.2734 9.46 87.0894 9.164C86.9054 8.86 86.6534 8.632 86.3334 8.48C86.0214 8.32 85.6734 8.24 85.2894 8.24C84.7374 8.24 84.2654 8.416 83.8734 8.768C83.4894 9.12 83.2694 9.608 83.2134 10.232H87.3654ZM89.6468 10.688C89.6468 10.016 89.7828 9.428 90.0548 8.924C90.3268 8.412 90.6988 8.016 91.1708 7.736C91.6508 7.456 92.1828 7.316 92.7668 7.316C93.3428 7.316 93.8428 7.44 94.2668 7.688C94.6908 7.936 95.0068 8.248 95.2148 8.624V7.424H96.3188V14H95.2148V12.776C94.9988 13.16 94.6748 13.48 94.2428 13.736C93.8188 13.984 93.3228 14.108 92.7548 14.108C92.1708 14.108 91.6428 13.964 91.1708 13.676C90.6988 13.388 90.3268 12.984 90.0548 12.464C89.7828 11.944 89.6468 11.352 89.6468 10.688ZM95.2148 10.7C95.2148 10.204 95.1148 9.772 94.9148 9.404C94.7148 9.036 94.4428 8.756 94.0988 8.564C93.7628 8.364 93.3908 8.264 92.9828 8.264C92.5748 8.264 92.2028 8.36 91.8668 8.552C91.5308 8.744 91.2628 9.024 91.0628 9.392C90.8628 9.76 90.7628 10.192 90.7628 10.688C90.7628 11.192 90.8628 11.632 91.0628 12.008C91.2628 12.376 91.5308 12.66 91.8668 12.86C92.2028 13.052 92.5748 13.148 92.9828 13.148C93.3908 13.148 93.7628 13.052 94.0988 12.86C94.4428 12.66 94.7148 12.376 94.9148 12.008C95.1148 11.632 95.2148 11.196 95.2148 10.7ZM99.3762 8.492C99.5682 8.116 99.8402 7.824 100.192 7.616C100.552 7.408 100.988 7.304 101.5 7.304V8.432H101.212C99.9882 8.432 99.3762 9.096 99.3762 10.424V14H98.2842V7.424H99.3762V8.492ZM102.473 10.7C102.473 10.02 102.609 9.428 102.881 8.924C103.153 8.412 103.529 8.016 104.009 7.736C104.497 7.456 105.053 7.316 105.677 7.316C106.485 7.316 107.149 7.512 107.669 7.904C108.197 8.296 108.545 8.84 108.713 9.536H107.537C107.425 9.136 107.205 8.82 106.877 8.588C106.557 8.356 106.157 8.24 105.677 8.24C105.053 8.24 104.549 8.456 104.165 8.888C103.781 9.312 103.589 9.916 103.589 10.7C103.589 11.492 103.781 12.104 104.165 12.536C104.549 12.968 105.053 13.184 105.677 13.184C106.157 13.184 106.557 13.072 106.877 12.848C107.197 12.624 107.417 12.304 107.537 11.888H108.713C108.537 12.56 108.185 13.1 107.657 13.508C107.129 13.908 106.469 14.108 105.677 14.108C105.053 14.108 104.497 13.968 104.009 13.688C103.529 13.408 103.153 13.012 102.881 12.5C102.609 11.988 102.473 11.388 102.473 10.7ZM113.554 7.304C114.05 7.304 114.498 7.412 114.898 7.628C115.298 7.836 115.61 8.152 115.834 8.576C116.066 9 116.182 9.516 116.182 10.124V14H115.102V10.28C115.102 9.624 114.938 9.124 114.61 8.78C114.282 8.428 113.834 8.252 113.266 8.252C112.69 8.252 112.23 8.432 111.886 8.792C111.55 9.152 111.382 9.676 111.382 10.364V14H110.29V5.12H111.382V8.36C111.598 8.024 111.894 7.764 112.27 7.58C112.654 7.396 113.082 7.304 113.554 7.304Z" fill="#90A0B7"/>
<path d="M12.9167 11.6667H12.2583L12.025 11.4417C12.8417 10.4917 13.3333 9.25833 13.3333 7.91667C13.3333 4.925 10.9083 2.5 7.91667 2.5C4.925 2.5 2.5 4.925 2.5 7.91667C2.5 10.9083 4.925 13.3333 7.91667 13.3333C9.25833 13.3333 10.4917 12.8417 11.4417 12.025L11.6667 12.2583V12.9167L15.8333 17.075L17.075 15.8333L12.9167 11.6667ZM7.91667 11.6667C5.84167 11.6667 4.16667 9.99167 4.16667 7.91667C4.16667 5.84167 5.84167 4.16667 7.91667 4.16667C9.99167 4.16667 11.6667 5.84167 11.6667 7.91667C11.6667 9.99167 9.99167 11.6667 7.91667 11.6667Z" fill="#C2CFE0"/>
</svg>
