<svg width="208" height="20" viewBox="0 0 208 20" fill="none" xmlns="http://www.w3.org/2000/svg">
<path d="M34.481 9.463C34.481 8.579 34.6847 7.786 35.092 7.084C35.508 6.382 36.067 5.836 36.769 5.446C37.4797 5.04733 38.2553 4.848 39.096 4.848C40.058 4.848 40.9117 5.08633 41.657 5.563C42.411 6.031 42.957 6.69833 43.295 7.565H41.514C41.28 7.08833 40.955 6.733 40.539 6.499C40.123 6.265 39.642 6.148 39.096 6.148C38.498 6.148 37.965 6.28233 37.497 6.551C37.029 6.81967 36.6607 7.20533 36.392 7.708C36.132 8.21067 36.002 8.79567 36.002 9.463C36.002 10.1303 36.132 10.7153 36.392 11.218C36.6607 11.7207 37.029 12.1107 37.497 12.388C37.965 12.6567 38.498 12.791 39.096 12.791C39.642 12.791 40.123 12.674 40.539 12.44C40.955 12.206 41.28 11.8507 41.514 11.374H43.295C42.957 12.2407 42.411 12.908 41.657 13.376C40.9117 13.844 40.058 14.078 39.096 14.078C38.2467 14.078 37.471 13.883 36.769 13.493C36.067 13.0943 35.508 12.544 35.092 11.842C34.6847 11.14 34.481 10.347 34.481 9.463ZM48.8647 6.72C49.4107 6.72 49.896 6.837 50.3207 7.071C50.754 7.305 51.092 7.65167 51.3347 8.111C51.586 8.57033 51.7117 9.125 51.7117 9.775V14H50.2427V9.996C50.2427 9.35467 50.0824 8.865 49.7617 8.527C49.441 8.18033 49.0034 8.007 48.4487 8.007C47.894 8.007 47.452 8.18033 47.1227 8.527C46.802 8.865 46.6417 9.35467 46.6417 9.996V14H45.1597V4.38H46.6417V7.669C46.893 7.36567 47.2094 7.13167 47.5907 6.967C47.9807 6.80233 48.4054 6.72 48.8647 6.72ZM53.2381 10.386C53.2381 9.66667 53.3854 9.02967 53.6801 8.475C53.9834 7.92033 54.3907 7.49133 54.9021 7.188C55.4221 6.876 55.9941 6.72 56.6181 6.72C57.1814 6.72 57.6711 6.83267 58.0871 7.058C58.5117 7.27467 58.8497 7.54767 59.1011 7.877V6.837H60.5961V14H59.1011V12.934C58.8497 13.272 58.5074 13.5537 58.0741 13.779C57.6407 14.0043 57.1467 14.117 56.5921 14.117C55.9767 14.117 55.4134 13.961 54.9021 13.649C54.3907 13.3283 53.9834 12.8863 53.6801 12.323C53.3854 11.751 53.2381 11.1053 53.2381 10.386ZM59.1011 10.412C59.1011 9.918 58.9971 9.489 58.7891 9.125C58.5897 8.761 58.3254 8.48367 57.9961 8.293C57.6667 8.10233 57.3114 8.007 56.9301 8.007C56.5487 8.007 56.1934 8.10233 55.8641 8.293C55.5347 8.475 55.2661 8.748 55.0581 9.112C54.8587 9.46733 54.7591 9.892 54.7591 10.386C54.7591 10.88 54.8587 11.3133 55.0581 11.686C55.2661 12.0587 55.5347 12.3447 55.8641 12.544C56.2021 12.7347 56.5574 12.83 56.9301 12.83C57.3114 12.83 57.6667 12.7347 57.9961 12.544C58.3254 12.3533 58.5897 12.076 58.7891 11.712C58.9971 11.3393 59.1011 10.906 59.1011 10.412ZM64.4016 8.046V12.011C64.4016 12.2797 64.4623 12.4747 64.5836 12.596C64.7136 12.7087 64.9303 12.765 65.2336 12.765H66.1436V14H64.9736C64.3063 14 63.795 13.844 63.4396 13.532C63.0843 13.22 62.9066 12.713 62.9066 12.011V8.046H62.0616V6.837H62.9066V5.056H64.4016V6.837H66.1436V8.046H64.4016Z" fill="#334D6E"/>
<g clip-path="url(#clip0_18204:172)">
<path d="M4.99996 14.3001H4.71001L4.50499 14.5051L2.36663 16.6435V3.33342C2.36663 2.80335 2.80323 2.36675 3.33329 2.36675H16.6666C17.1967 2.36675 17.6333 2.80335 17.6333 3.33342V13.3334C17.6333 13.8635 17.1967 14.3001 16.6666 14.3001H4.99996Z" stroke="#C2CFE0" stroke-width="1.4"/>
</g>
<defs>
<clipPath id="clip0_18204:172">
<rect width="20" height="20" fill="white"/>
</clipPath>
</defs>
</svg>
