<svg width="208" height="20" viewBox="0 0 208 20" fill="none" xmlns="http://www.w3.org/2000/svg">
<path d="M34.481 9.463C34.481 8.579 34.6847 7.786 35.092 7.084C35.508 6.382 36.067 5.836 36.769 5.446C37.4797 5.04733 38.2553 4.848 39.096 4.848C40.058 4.848 40.9117 5.08633 41.657 5.563C42.411 6.031 42.957 6.69833 43.295 7.565H41.514C41.28 7.08833 40.955 6.733 40.539 6.499C40.123 6.265 39.642 6.148 39.096 6.148C38.498 6.148 37.965 6.28233 37.497 6.551C37.029 6.81967 36.6607 7.20533 36.392 7.708C36.132 8.21067 36.002 8.79567 36.002 9.463C36.002 10.1303 36.132 10.7153 36.392 11.218C36.6607 11.7207 37.029 12.1107 37.497 12.388C37.965 12.6567 38.498 12.791 39.096 12.791C39.642 12.791 40.123 12.674 40.539 12.44C40.955 12.206 41.28 11.8507 41.514 11.374H43.295C42.957 12.2407 42.411 12.908 41.657 13.376C40.9117 13.844 40.058 14.078 39.096 14.078C38.2467 14.078 37.471 13.883 36.769 13.493C36.067 13.0943 35.508 12.544 35.092 11.842C34.6847 11.14 34.481 10.347 34.481 9.463ZM48.2667 14.117C47.5907 14.117 46.9797 13.9653 46.4337 13.662C45.8877 13.35 45.4587 12.9167 45.1467 12.362C44.8347 11.7987 44.6787 11.1487 44.6787 10.412C44.6787 9.684 44.839 9.03833 45.1597 8.475C45.4804 7.91167 45.918 7.47833 46.4727 7.175C47.0274 6.87167 47.647 6.72 48.3317 6.72C49.0164 6.72 49.636 6.87167 50.1907 7.175C50.7454 7.47833 51.183 7.91167 51.5037 8.475C51.8244 9.03833 51.9847 9.684 51.9847 10.412C51.9847 11.14 51.82 11.7857 51.4907 12.349C51.1614 12.9123 50.7107 13.35 50.1387 13.662C49.5754 13.9653 48.9514 14.117 48.2667 14.117ZM48.2667 12.83C48.648 12.83 49.0034 12.739 49.3327 12.557C49.6707 12.375 49.9437 12.102 50.1517 11.738C50.3597 11.374 50.4637 10.932 50.4637 10.412C50.4637 9.892 50.364 9.45433 50.1647 9.099C49.9654 8.735 49.701 8.462 49.3717 8.28C49.0424 8.098 48.687 8.007 48.3057 8.007C47.9244 8.007 47.569 8.098 47.2397 8.28C46.919 8.462 46.6634 8.735 46.4727 9.099C46.282 9.45433 46.1867 9.892 46.1867 10.412C46.1867 11.1833 46.3817 11.7813 46.7717 12.206C47.1704 12.622 47.6687 12.83 48.2667 12.83ZM57.1937 6.72C57.7571 6.72 58.2597 6.837 58.7017 7.071C59.1524 7.305 59.5034 7.65167 59.7547 8.111C60.0061 8.57033 60.1317 9.125 60.1317 9.775V14H58.6627V9.996C58.6627 9.35467 58.5024 8.865 58.1817 8.527C57.8611 8.18033 57.4234 8.007 56.8687 8.007C56.3141 8.007 55.8721 8.18033 55.5427 8.527C55.2221 8.865 55.0617 9.35467 55.0617 9.996V14H53.5797V6.837H55.0617V7.656C55.3044 7.36133 55.6121 7.13167 55.9847 6.967C56.3661 6.80233 56.7691 6.72 57.1937 6.72ZM63.8811 8.046V12.011C63.8811 12.2797 63.9418 12.4747 64.0631 12.596C64.1931 12.7087 64.4098 12.765 64.7131 12.765H65.6231V14H64.4531C63.7858 14 63.2744 13.844 62.9191 13.532C62.5638 13.22 62.3861 12.713 62.3861 12.011V8.046H61.5411V6.837H62.3861V5.056H63.8811V6.837H65.6231V8.046H63.8811ZM66.625 10.386C66.625 9.66667 66.7724 9.02967 67.067 8.475C67.3704 7.92033 67.7777 7.49133 68.289 7.188C68.809 6.876 69.381 6.72 70.005 6.72C70.5684 6.72 71.058 6.83267 71.474 7.058C71.8987 7.27467 72.2367 7.54767 72.488 7.877V6.837H73.983V14H72.488V12.934C72.2367 13.272 71.8944 13.5537 71.461 13.779C71.0277 14.0043 70.5337 14.117 69.979 14.117C69.3637 14.117 68.8004 13.961 68.289 13.649C67.7777 13.3283 67.3704 12.8863 67.067 12.323C66.7724 11.751 66.625 11.1053 66.625 10.386ZM72.488 10.412C72.488 9.918 72.384 9.489 72.176 9.125C71.9767 8.761 71.7124 8.48367 71.383 8.293C71.0537 8.10233 70.6984 8.007 70.317 8.007C69.9357 8.007 69.5804 8.10233 69.251 8.293C68.9217 8.475 68.653 8.748 68.445 9.112C68.2457 9.46733 68.146 9.892 68.146 10.386C68.146 10.88 68.2457 11.3133 68.445 11.686C68.653 12.0587 68.9217 12.3447 69.251 12.544C69.589 12.7347 69.9444 12.83 70.317 12.83C70.6984 12.83 71.0537 12.7347 71.383 12.544C71.7124 12.3533 71.9767 12.076 72.176 11.712C72.384 11.3393 72.488 10.906 72.488 10.412ZM75.5656 10.412C75.5656 9.67533 75.7129 9.02967 76.0076 8.475C76.3109 7.91167 76.7269 7.47833 77.2556 7.175C77.7842 6.87167 78.3909 6.72 79.0756 6.72C79.9422 6.72 80.6572 6.928 81.2206 7.344C81.7926 7.75133 82.1782 8.33633 82.3776 9.099H80.7786C80.6486 8.74367 80.4406 8.46633 80.1546 8.267C79.8686 8.06767 79.5089 7.968 79.0756 7.968C78.4689 7.968 77.9836 8.18467 77.6196 8.618C77.2642 9.04267 77.0866 9.64067 77.0866 10.412C77.0866 11.1833 77.2642 11.7857 77.6196 12.219C77.9836 12.6523 78.4689 12.869 79.0756 12.869C79.9336 12.869 80.5012 12.492 80.7786 11.738H82.3776C82.1696 12.466 81.7796 13.0467 81.2076 13.48C80.6356 13.9047 79.9249 14.117 79.0756 14.117C78.3909 14.117 77.7842 13.9653 77.2556 13.662C76.7269 13.35 76.3109 12.9167 76.0076 12.362C75.7129 11.7987 75.5656 11.1487 75.5656 10.412ZM85.7135 8.046V12.011C85.7135 12.2797 85.7742 12.4747 85.8955 12.596C86.0255 12.7087 86.2422 12.765 86.5455 12.765H87.4555V14H86.2855C85.6182 14 85.1068 13.844 84.7515 13.532C84.3962 13.22 84.2185 12.713 84.2185 12.011V8.046H83.3735V6.837H84.2185V5.056H85.7135V6.837H87.4555V8.046H85.7135ZM91.5514 14.117C90.9881 14.117 90.4811 14.0173 90.0304 13.818C89.5884 13.61 89.2374 13.3327 88.9774 12.986C88.7174 12.6307 88.5787 12.2363 88.5614 11.803H90.0954C90.1214 12.1063 90.2644 12.362 90.5244 12.57C90.7931 12.7693 91.1267 12.869 91.5254 12.869C91.9414 12.869 92.2621 12.791 92.4874 12.635C92.7214 12.4703 92.8384 12.2623 92.8384 12.011C92.8384 11.7423 92.7084 11.543 92.4484 11.413C92.1971 11.283 91.7941 11.14 91.2394 10.984C90.7021 10.8367 90.2644 10.6937 89.9264 10.555C89.5884 10.4163 89.2937 10.204 89.0424 9.918C88.7997 9.632 88.6784 9.255 88.6784 8.787C88.6784 8.40567 88.7911 8.059 89.0164 7.747C89.2417 7.42633 89.5624 7.175 89.9784 6.993C90.4031 6.811 90.8884 6.72 91.4344 6.72C92.2491 6.72 92.9034 6.928 93.3974 7.344C93.9001 7.75133 94.1687 8.31033 94.2034 9.021H92.7214C92.6954 8.70033 92.5654 8.44467 92.3314 8.254C92.0974 8.06333 91.7811 7.968 91.3824 7.968C90.9924 7.968 90.6934 8.04167 90.4854 8.189C90.2774 8.33633 90.1734 8.53133 90.1734 8.774C90.1734 8.96467 90.2427 9.125 90.3814 9.255C90.5201 9.385 90.6891 9.489 90.8884 9.567C91.0877 9.63633 91.3824 9.72733 91.7724 9.84C92.2924 9.97867 92.7171 10.1217 93.0464 10.269C93.3844 10.4077 93.6747 10.6157 93.9174 10.893C94.1601 11.1703 94.2857 11.5387 94.2944 11.998C94.2944 12.4053 94.1817 12.7693 93.9564 13.09C93.7311 13.4107 93.4104 13.662 92.9944 13.844C92.5871 14.026 92.1061 14.117 91.5514 14.117Z" fill="#334D6E"/>
<path d="M6.81118 6.11106C6.81118 4.34905 8.23806 2.92217 10.0001 2.92217C11.7621 2.92217 13.189 4.34904 13.189 6.11106C13.189 7.87307 11.7621 9.29995 10.0001 9.29995C8.23806 9.29995 6.81118 7.87307 6.81118 6.11106ZM2.92229 14.8611C2.92229 14.4716 3.11181 14.0787 3.54729 13.6768C3.98752 13.2705 4.63079 12.904 5.39805 12.5966C6.9337 11.9814 8.78966 11.6722 10.0001 11.6722C11.2105 11.6722 13.0664 11.9814 14.6021 12.5966C15.3693 12.904 16.0126 13.2705 16.4528 13.6768C16.8883 14.0787 17.0778 14.4716 17.0778 14.8611V17.0777H2.92229V14.8611Z" stroke="#C2CFE0" stroke-width="1.4"/>
</svg>
