<svg width="208" height="20" viewBox="0 0 208 20" fill="none" xmlns="http://www.w3.org/2000/svg">
<path d="M37.926 4.965C38.888 4.965 39.7287 5.15133 40.448 5.524C41.176 5.888 41.735 6.41667 42.125 7.11C42.5237 7.79467 42.723 8.59633 42.723 9.515C42.723 10.4337 42.5237 11.231 42.125 11.907C41.735 12.583 41.176 13.103 40.448 13.467C39.7287 13.8223 38.888 14 37.926 14H34.975V4.965H37.926ZM37.926 12.791C38.9833 12.791 39.7937 12.505 40.357 11.933C40.9203 11.361 41.202 10.555 41.202 9.515C41.202 8.46633 40.9203 7.64733 40.357 7.058C39.7937 6.46867 38.9833 6.174 37.926 6.174H36.457V12.791H37.926ZM43.8278 10.386C43.8278 9.66667 43.9751 9.02967 44.2698 8.475C44.5731 7.92033 44.9805 7.49133 45.4918 7.188C46.0118 6.876 46.5838 6.72 47.2078 6.72C47.7711 6.72 48.2608 6.83267 48.6768 7.058C49.1015 7.27467 49.4395 7.54767 49.6908 7.877V6.837H51.1858V14H49.6908V12.934C49.4395 13.272 49.0971 13.5537 48.6638 13.779C48.2305 14.0043 47.7365 14.117 47.1818 14.117C46.5665 14.117 46.0031 13.961 45.4918 13.649C44.9805 13.3283 44.5731 12.8863 44.2698 12.323C43.9751 11.751 43.8278 11.1053 43.8278 10.386ZM49.6908 10.412C49.6908 9.918 49.5868 9.489 49.3788 9.125C49.1795 8.761 48.9151 8.48367 48.5858 8.293C48.2565 8.10233 47.9011 8.007 47.5198 8.007C47.1385 8.007 46.7831 8.10233 46.4538 8.293C46.1245 8.475 45.8558 8.748 45.6478 9.112C45.4485 9.46733 45.3488 9.892 45.3488 10.386C45.3488 10.88 45.4485 11.3133 45.6478 11.686C45.8558 12.0587 46.1245 12.3447 46.4538 12.544C46.7918 12.7347 47.1471 12.83 47.5198 12.83C47.9011 12.83 48.2565 12.7347 48.5858 12.544C48.9151 12.3533 49.1795 12.076 49.3788 11.712C49.5868 11.3393 49.6908 10.906 49.6908 10.412ZM55.8623 14.117C55.299 14.117 54.792 14.0173 54.3413 13.818C53.8993 13.61 53.5483 13.3327 53.2883 12.986C53.0283 12.6307 52.8897 12.2363 52.8723 11.803H54.4063C54.4323 12.1063 54.5753 12.362 54.8353 12.57C55.104 12.7693 55.4377 12.869 55.8363 12.869C56.2523 12.869 56.573 12.791 56.7983 12.635C57.0323 12.4703 57.1493 12.2623 57.1493 12.011C57.1493 11.7423 57.0193 11.543 56.7593 11.413C56.508 11.283 56.105 11.14 55.5503 10.984C55.013 10.8367 54.5753 10.6937 54.2373 10.555C53.8993 10.4163 53.6047 10.204 53.3533 9.918C53.1107 9.632 52.9893 9.255 52.9893 8.787C52.9893 8.40567 53.102 8.059 53.3273 7.747C53.5527 7.42633 53.8733 7.175 54.2893 6.993C54.714 6.811 55.1993 6.72 55.7453 6.72C56.56 6.72 57.2143 6.928 57.7083 7.344C58.211 7.75133 58.4797 8.31033 58.5143 9.021H57.0323C57.0063 8.70033 56.8763 8.44467 56.6423 8.254C56.4083 8.06333 56.092 7.968 55.6933 7.968C55.3033 7.968 55.0043 8.04167 54.7963 8.189C54.5883 8.33633 54.4843 8.53133 54.4843 8.774C54.4843 8.96467 54.5537 9.125 54.6923 9.255C54.831 9.385 55 9.489 55.1993 9.567C55.3987 9.63633 55.6933 9.72733 56.0833 9.84C56.6033 9.97867 57.028 10.1217 57.3573 10.269C57.6953 10.4077 57.9857 10.6157 58.2283 10.893C58.471 11.1703 58.5967 11.5387 58.6053 11.998C58.6053 12.4053 58.4927 12.7693 58.2673 13.09C58.042 13.4107 57.7213 13.662 57.3053 13.844C56.898 14.026 56.417 14.117 55.8623 14.117ZM64.0417 6.72C64.5877 6.72 65.073 6.837 65.4977 7.071C65.931 7.305 66.269 7.65167 66.5117 8.111C66.763 8.57033 66.8887 9.125 66.8887 9.775V14H65.4197V9.996C65.4197 9.35467 65.2593 8.865 64.9387 8.527C64.618 8.18033 64.1803 8.007 63.6257 8.007C63.071 8.007 62.629 8.18033 62.2997 8.527C61.979 8.865 61.8187 9.35467 61.8187 9.996V14H60.3367V4.38H61.8187V7.669C62.07 7.36567 62.3863 7.13167 62.7677 6.967C63.1577 6.80233 63.5823 6.72 64.0417 6.72ZM70.3911 7.903C70.6424 7.55633 70.9847 7.27467 71.4181 7.058C71.8601 6.83267 72.3497 6.72 72.8871 6.72C73.5197 6.72 74.0917 6.87167 74.6031 7.175C75.1144 7.47833 75.5174 7.91167 75.8121 8.475C76.1067 9.02967 76.2541 9.66667 76.2541 10.386C76.2541 11.1053 76.1067 11.751 75.8121 12.323C75.5174 12.8863 75.1101 13.3283 74.5901 13.649C74.0787 13.961 73.5111 14.117 72.8871 14.117C72.3324 14.117 71.8384 14.0087 71.4051 13.792C70.9804 13.5753 70.6424 13.298 70.3911 12.96V14H68.9091V4.38H70.3911V7.903ZM74.7461 10.386C74.7461 9.892 74.6421 9.46733 74.4341 9.112C74.2347 8.748 73.9661 8.475 73.6281 8.293C73.2987 8.10233 72.9434 8.007 72.5621 8.007C72.1894 8.007 71.8341 8.10233 71.4961 8.293C71.1667 8.48367 70.8981 8.761 70.6901 9.125C70.4907 9.489 70.3911 9.918 70.3911 10.412C70.3911 10.906 70.4907 11.3393 70.6901 11.712C70.8981 12.076 71.1667 12.3533 71.4961 12.544C71.8341 12.7347 72.1894 12.83 72.5621 12.83C72.9434 12.83 73.2987 12.7347 73.6281 12.544C73.9661 12.3447 74.2347 12.0587 74.4341 11.686C74.6421 11.3133 74.7461 10.88 74.7461 10.386ZM80.9566 14.117C80.2806 14.117 79.6696 13.9653 79.1236 13.662C78.5776 13.35 78.1486 12.9167 77.8366 12.362C77.5246 11.7987 77.3686 11.1487 77.3686 10.412C77.3686 9.684 77.5289 9.03833 77.8496 8.475C78.1703 7.91167 78.6079 7.47833 79.1626 7.175C79.7173 6.87167 80.3369 6.72 81.0216 6.72C81.7063 6.72 82.3259 6.87167 82.8806 7.175C83.4353 7.47833 83.8729 7.91167 84.1936 8.475C84.5143 9.03833 84.6746 9.684 84.6746 10.412C84.6746 11.14 84.5099 11.7857 84.1806 12.349C83.8513 12.9123 83.4006 13.35 82.8286 13.662C82.2653 13.9653 81.6413 14.117 80.9566 14.117ZM80.9566 12.83C81.3379 12.83 81.6933 12.739 82.0226 12.557C82.3606 12.375 82.6336 12.102 82.8416 11.738C83.0496 11.374 83.1536 10.932 83.1536 10.412C83.1536 9.892 83.0539 9.45433 82.8546 9.099C82.6553 8.735 82.3909 8.462 82.0616 8.28C81.7323 8.098 81.3769 8.007 80.9956 8.007C80.6143 8.007 80.2589 8.098 79.9296 8.28C79.6089 8.462 79.3533 8.735 79.1626 9.099C78.9719 9.45433 78.8766 9.892 78.8766 10.412C78.8766 11.1833 79.0716 11.7813 79.4616 12.206C79.8603 12.622 80.3586 12.83 80.9566 12.83ZM85.7756 10.386C85.7756 9.66667 85.923 9.02967 86.2176 8.475C86.521 7.92033 86.9283 7.49133 87.4396 7.188C87.9596 6.876 88.5316 6.72 89.1556 6.72C89.719 6.72 90.2086 6.83267 90.6246 7.058C91.0493 7.27467 91.3873 7.54767 91.6386 7.877V6.837H93.1336V14H91.6386V12.934C91.3873 13.272 91.045 13.5537 90.6116 13.779C90.1783 14.0043 89.6843 14.117 89.1296 14.117C88.5143 14.117 87.951 13.961 87.4396 13.649C86.9283 13.3283 86.521 12.8863 86.2176 12.323C85.923 11.751 85.7756 11.1053 85.7756 10.386ZM91.6386 10.412C91.6386 9.918 91.5346 9.489 91.3266 9.125C91.1273 8.761 90.863 8.48367 90.5336 8.293C90.2043 8.10233 89.849 8.007 89.4676 8.007C89.0863 8.007 88.731 8.10233 88.4016 8.293C88.0723 8.475 87.8036 8.748 87.5956 9.112C87.3963 9.46733 87.2966 9.892 87.2966 10.386C87.2966 10.88 87.3963 11.3133 87.5956 11.686C87.8036 12.0587 88.0723 12.3447 88.4016 12.544C88.7396 12.7347 89.095 12.83 89.4676 12.83C89.849 12.83 90.2043 12.7347 90.5336 12.544C90.863 12.3533 91.1273 12.076 91.3266 11.712C91.5346 11.3393 91.6386 10.906 91.6386 10.412ZM96.6922 7.877C96.9089 7.513 97.1949 7.23133 97.5502 7.032C97.9142 6.824 98.3432 6.72 98.8372 6.72V8.254H98.4602C97.8795 8.254 97.4375 8.40133 97.1342 8.696C96.8395 8.99067 96.6922 9.502 96.6922 10.23V14H95.2102V6.837H96.6922V7.877ZM99.8355 10.386C99.8355 9.66667 99.9828 9.02967 100.277 8.475C100.581 7.92033 100.988 7.49133 101.499 7.188C102.019 6.876 102.596 6.72 103.228 6.72C103.696 6.72 104.156 6.824 104.606 7.032C105.066 7.23133 105.43 7.5 105.698 7.838V4.38H107.193V14H105.698V12.921C105.456 13.2677 105.118 13.5537 104.684 13.779C104.26 14.0043 103.77 14.117 103.215 14.117C102.591 14.117 102.019 13.961 101.499 13.649C100.988 13.3283 100.581 12.8863 100.277 12.323C99.9828 11.751 99.8355 11.1053 99.8355 10.386ZM105.698 10.412C105.698 9.918 105.594 9.489 105.386 9.125C105.187 8.761 104.923 8.48367 104.593 8.293C104.264 8.10233 103.909 8.007 103.527 8.007C103.146 8.007 102.791 8.10233 102.461 8.293C102.132 8.475 101.863 8.748 101.655 9.112C101.456 9.46733 101.356 9.892 101.356 10.386C101.356 10.88 101.456 11.3133 101.655 11.686C101.863 12.0587 102.132 12.3447 102.461 12.544C102.799 12.7347 103.155 12.83 103.527 12.83C103.909 12.83 104.264 12.7347 104.593 12.544C104.923 12.3533 105.187 12.076 105.386 11.712C105.594 11.3393 105.698 10.906 105.698 10.412Z" fill="#109CF1"/>
<path d="M3.5 10.1333C3.33431 10.1333 3.2 9.99902 3.2 9.83333V3.5C3.2 3.33431 3.33431 3.2 3.5 3.2H8.16667C8.33235 3.2 8.46667 3.33431 8.46667 3.5V9.83333C8.46667 9.99902 8.33235 10.1333 8.16667 10.1333H3.5ZM3.5 16.8C3.33431 16.8 3.2 16.6657 3.2 16.5V13.5C3.2 13.3343 3.33431 13.2 3.5 13.2H8.16667C8.33235 13.2 8.46667 13.3343 8.46667 13.5V16.5C8.46667 16.6657 8.33235 16.8 8.16667 16.8H3.5ZM11.8333 16.8C11.6676 16.8 11.5333 16.6657 11.5333 16.5V10.1667C11.5333 10.001 11.6676 9.86667 11.8333 9.86667H16.5C16.6657 9.86667 16.8 10.001 16.8 10.1667V16.5C16.8 16.6657 16.6657 16.8 16.5 16.8H11.8333ZM11.5333 3.5C11.5333 3.33431 11.6676 3.2 11.8333 3.2H16.5C16.6657 3.2 16.8 3.33431 16.8 3.5V6.5C16.8 6.66569 16.6657 6.8 16.5 6.8H11.8333C11.6676 6.8 11.5333 6.66569 11.5333 6.5V3.5Z" stroke="#109CF1" stroke-width="1.4"/>
</svg>
