<svg width="208" height="20" viewBox="0 0 208 20" fill="none" xmlns="http://www.w3.org/2000/svg">
<path d="M37.926 4.965C38.888 4.965 39.7287 5.15133 40.448 5.524C41.176 5.888 41.735 6.41667 42.125 7.11C42.5237 7.79467 42.723 8.59633 42.723 9.515C42.723 10.4337 42.5237 11.231 42.125 11.907C41.735 12.583 41.176 13.103 40.448 13.467C39.7287 13.8223 38.888 14 37.926 14H34.975V4.965H37.926ZM37.926 12.791C38.9833 12.791 39.7937 12.505 40.357 11.933C40.9203 11.361 41.202 10.555 41.202 9.515C41.202 8.46633 40.9203 7.64733 40.357 7.058C39.7937 6.46867 38.9833 6.174 37.926 6.174H36.457V12.791H37.926ZM50.8868 10.243C50.8868 10.5117 50.8695 10.7543 50.8348 10.971H45.3618C45.4051 11.543 45.6175 12.0023 45.9988 12.349C46.3801 12.6957 46.8481 12.869 47.4028 12.869C48.2001 12.869 48.7635 12.5353 49.0928 11.868H50.6918C50.4751 12.5267 50.0808 13.0683 49.5088 13.493C48.9455 13.909 48.2435 14.117 47.4028 14.117C46.7181 14.117 46.1028 13.9653 45.5568 13.662C45.0195 13.35 44.5948 12.9167 44.2828 12.362C43.9795 11.7987 43.8278 11.1487 43.8278 10.412C43.8278 9.67533 43.9751 9.02967 44.2698 8.475C44.5731 7.91167 44.9935 7.47833 45.5308 7.175C46.0768 6.87167 46.7008 6.72 47.4028 6.72C48.0788 6.72 48.6811 6.86733 49.2098 7.162C49.7385 7.45667 50.1501 7.87267 50.4448 8.41C50.7395 8.93867 50.8868 9.54967 50.8868 10.243ZM49.3398 9.775C49.3311 9.229 49.1361 8.79133 48.7548 8.462C48.3735 8.13267 47.9011 7.968 47.3378 7.968C46.8265 7.968 46.3888 8.13267 46.0248 8.462C45.6608 8.78267 45.4441 9.22033 45.3748 9.775H49.3398ZM51.9812 10.386C51.9812 9.66667 52.1286 9.02967 52.4232 8.475C52.7266 7.92033 53.1339 7.49133 53.6452 7.188C54.1652 6.876 54.7372 6.72 55.3612 6.72C55.9246 6.72 56.4142 6.83267 56.8302 7.058C57.2549 7.27467 57.5929 7.54767 57.8442 7.877V6.837H59.3392V14H57.8442V12.934C57.5929 13.272 57.2506 13.5537 56.8172 13.779C56.3839 14.0043 55.8899 14.117 55.3352 14.117C54.7199 14.117 54.1566 13.961 53.6452 13.649C53.1339 13.3283 52.7266 12.8863 52.4232 12.323C52.1286 11.751 51.9812 11.1053 51.9812 10.386ZM57.8442 10.412C57.8442 9.918 57.7402 9.489 57.5322 9.125C57.3329 8.761 57.0686 8.48367 56.7392 8.293C56.4099 8.10233 56.0546 8.007 55.6732 8.007C55.2919 8.007 54.9366 8.10233 54.6072 8.293C54.2779 8.475 54.0092 8.748 53.8012 9.112C53.6019 9.46733 53.5022 9.892 53.5022 10.386C53.5022 10.88 53.6019 11.3133 53.8012 11.686C54.0092 12.0587 54.2779 12.3447 54.6072 12.544C54.9452 12.7347 55.3006 12.83 55.6732 12.83C56.0546 12.83 56.4099 12.7347 56.7392 12.544C57.0686 12.3533 57.3329 12.076 57.5322 11.712C57.7402 11.3393 57.8442 10.906 57.8442 10.412ZM62.8978 4.38V14H61.4158V4.38H62.8978ZM67.5735 14.117C67.0102 14.117 66.5032 14.0173 66.0525 13.818C65.6105 13.61 65.2595 13.3327 64.9995 12.986C64.7395 12.6307 64.6008 12.2363 64.5835 11.803H66.1175C66.1435 12.1063 66.2865 12.362 66.5465 12.57C66.8152 12.7693 67.1488 12.869 67.5475 12.869C67.9635 12.869 68.2842 12.791 68.5095 12.635C68.7435 12.4703 68.8605 12.2623 68.8605 12.011C68.8605 11.7423 68.7305 11.543 68.4705 11.413C68.2192 11.283 67.8162 11.14 67.2615 10.984C66.7242 10.8367 66.2865 10.6937 65.9485 10.555C65.6105 10.4163 65.3158 10.204 65.0645 9.918C64.8218 9.632 64.7005 9.255 64.7005 8.787C64.7005 8.40567 64.8132 8.059 65.0385 7.747C65.2638 7.42633 65.5845 7.175 66.0005 6.993C66.4252 6.811 66.9105 6.72 67.4565 6.72C68.2712 6.72 68.9255 6.928 69.4195 7.344C69.9222 7.75133 70.1908 8.31033 70.2255 9.021H68.7435C68.7175 8.70033 68.5875 8.44467 68.3535 8.254C68.1195 8.06333 67.8032 7.968 67.4045 7.968C67.0145 7.968 66.7155 8.04167 66.5075 8.189C66.2995 8.33633 66.1955 8.53133 66.1955 8.774C66.1955 8.96467 66.2648 9.125 66.4035 9.255C66.5422 9.385 66.7112 9.489 66.9105 9.567C67.1098 9.63633 67.4045 9.72733 67.7945 9.84C68.3145 9.97867 68.7392 10.1217 69.0685 10.269C69.4065 10.4077 69.6968 10.6157 69.9395 10.893C70.1822 11.1703 70.3078 11.5387 70.3165 11.998C70.3165 12.4053 70.2038 12.7693 69.9785 13.09C69.7532 13.4107 69.4325 13.662 69.0165 13.844C68.6092 14.026 68.1282 14.117 67.5735 14.117Z" fill="#334D6E"/>
<path d="M2.49996 4.03325H17.5C17.5717 4.03325 17.6333 4.09485 17.6333 4.16659V15.8333C17.6333 15.905 17.5717 15.9666 17.5 15.9666H2.49996C2.42823 15.9666 2.36663 15.905 2.36663 15.8333V4.16659C2.36663 4.09485 2.42823 4.03325 2.49996 4.03325Z" stroke="#C2CFE0" stroke-width="1.4"/>
<rect x="6.5" y="3.33325" width="1.16667" height="13.3333" fill="#C2CFE0"/>
<rect x="12.3334" y="3.33325" width="1.16667" height="13.3333" fill="#C2CFE0"/>
</svg>
