<svg width="208" height="20" viewBox="0 0 208 20" fill="none" xmlns="http://www.w3.org/2000/svg">
<path d="M36.457 6.161V8.813H39.577V10.022H36.457V12.791H39.967V14H34.975V4.952H39.967V6.161H36.457ZM50.5934 6.72C51.1567 6.72 51.6594 6.837 52.1014 7.071C52.552 7.305 52.9031 7.65167 53.1544 8.111C53.4144 8.57033 53.5444 9.125 53.5444 9.775V14H52.0754V9.996C52.0754 9.35467 51.9151 8.865 51.5944 8.527C51.2737 8.18033 50.8361 8.007 50.2814 8.007C49.7267 8.007 49.2847 8.18033 48.9554 8.527C48.6347 8.865 48.4744 9.35467 48.4744 9.996V14H47.0054V9.996C47.0054 9.35467 46.845 8.865 46.5244 8.527C46.2037 8.18033 45.766 8.007 45.2114 8.007C44.6567 8.007 44.2147 8.18033 43.8854 8.527C43.5647 8.865 43.4044 9.35467 43.4044 9.996V14H41.9224V6.837H43.4044V7.656C43.647 7.36133 43.9547 7.13167 44.3274 6.967C44.7 6.80233 45.0987 6.72 45.5234 6.72C46.0954 6.72 46.6067 6.84133 47.0574 7.084C47.508 7.32667 47.8547 7.67767 48.0974 8.137C48.3141 7.70367 48.6521 7.36133 49.1114 7.11C49.5707 6.85 50.0647 6.72 50.5934 6.72ZM55.0662 10.386C55.0662 9.66667 55.2135 9.02967 55.5082 8.475C55.8115 7.92033 56.2189 7.49133 56.7302 7.188C57.2502 6.876 57.8222 6.72 58.4462 6.72C59.0095 6.72 59.4992 6.83267 59.9152 7.058C60.3399 7.27467 60.6779 7.54767 60.9292 7.877V6.837H62.4242V14H60.9292V12.934C60.6779 13.272 60.3355 13.5537 59.9022 13.779C59.4689 14.0043 58.9749 14.117 58.4202 14.117C57.8049 14.117 57.2415 13.961 56.7302 13.649C56.2189 13.3283 55.8115 12.8863 55.5082 12.323C55.2135 11.751 55.0662 11.1053 55.0662 10.386ZM60.9292 10.412C60.9292 9.918 60.8252 9.489 60.6172 9.125C60.4179 8.761 60.1535 8.48367 59.8242 8.293C59.4949 8.10233 59.1395 8.007 58.7582 8.007C58.3769 8.007 58.0215 8.10233 57.6922 8.293C57.3629 8.475 57.0942 8.748 56.8862 9.112C56.6869 9.46733 56.5872 9.892 56.5872 10.386C56.5872 10.88 56.6869 11.3133 56.8862 11.686C57.0942 12.0587 57.3629 12.3447 57.6922 12.544C58.0302 12.7347 58.3855 12.83 58.7582 12.83C59.1395 12.83 59.4949 12.7347 59.8242 12.544C60.1535 12.3533 60.4179 12.076 60.6172 11.712C60.8252 11.3393 60.9292 10.906 60.9292 10.412ZM65.2547 5.888C64.9861 5.888 64.7607 5.797 64.5787 5.615C64.3967 5.433 64.3057 5.20767 64.3057 4.939C64.3057 4.67033 64.3967 4.445 64.5787 4.263C64.7607 4.081 64.9861 3.99 65.2547 3.99C65.5147 3.99 65.7357 4.081 65.9177 4.263C66.0997 4.445 66.1907 4.67033 66.1907 4.939C66.1907 5.20767 66.0997 5.433 65.9177 5.615C65.7357 5.797 65.5147 5.888 65.2547 5.888ZM65.9827 6.837V14H64.5007V6.837H65.9827ZM69.5405 4.38V14H68.0585V4.38H69.5405Z" fill="#334D6E"/>
<path d="M2.37496 5.0005V4.99992C2.37496 4.46528 2.80778 4.03325 3.33329 4.03325H16.6666C17.1967 4.03325 17.6333 4.46985 17.6333 4.99992V14.9999C17.6333 15.53 17.1967 15.9666 16.6666 15.9666H3.33329C2.80331 15.9666 2.36677 15.5301 2.36663 15.0002C2.36663 15.0001 2.36663 15 2.36663 14.9999L2.37496 5.0005Z" stroke="#C2CFE0" stroke-width="1.4"/>
<path d="M2.5 5L10 10L17.5 5" stroke="#C2CFE0" stroke-width="1.4"/>
</svg>
