<svg width="208" height="20" viewBox="0 0 208 20" fill="none" xmlns="http://www.w3.org/2000/svg">
<path d="M37.952 14.091C37.3453 14.091 36.7993 13.987 36.314 13.779C35.8287 13.5623 35.4473 13.259 35.17 12.869C34.8927 12.479 34.754 12.024 34.754 11.504H36.34C36.3747 11.894 36.5263 12.2147 36.795 12.466C37.0723 12.7173 37.458 12.843 37.952 12.843C38.4633 12.843 38.862 12.7217 39.148 12.479C39.434 12.2277 39.577 11.907 39.577 11.517C39.577 11.2137 39.486 10.9667 39.304 10.776C39.1307 10.5853 38.9097 10.438 38.641 10.334C38.381 10.23 38.017 10.1173 37.549 9.996C36.9597 9.84 36.4787 9.684 36.106 9.528C35.742 9.36333 35.43 9.112 35.17 8.774C34.91 8.436 34.78 7.98533 34.78 7.422C34.78 6.902 34.91 6.447 35.17 6.057C35.43 5.667 35.794 5.368 36.262 5.16C36.73 4.952 37.2717 4.848 37.887 4.848C38.7623 4.848 39.4773 5.069 40.032 5.511C40.5953 5.94433 40.9073 6.54233 40.968 7.305H39.33C39.304 6.97567 39.148 6.694 38.862 6.46C38.576 6.226 38.199 6.109 37.731 6.109C37.3063 6.109 36.9597 6.21733 36.691 6.434C36.4223 6.65067 36.288 6.96267 36.288 7.37C36.288 7.64733 36.3703 7.877 36.535 8.059C36.7083 8.23233 36.925 8.371 37.185 8.475C37.445 8.579 37.8003 8.69167 38.251 8.813C38.849 8.97767 39.3343 9.14233 39.707 9.307C40.0883 9.47167 40.409 9.72733 40.669 10.074C40.9377 10.412 41.072 10.867 41.072 11.439C41.072 11.8983 40.9463 12.3317 40.695 12.739C40.4523 13.1463 40.0927 13.4757 39.616 13.727C39.148 13.9697 38.5933 14.091 37.952 14.091ZM49.5157 10.243C49.5157 10.5117 49.4984 10.7543 49.4637 10.971H43.9907C44.034 11.543 44.2464 12.0023 44.6277 12.349C45.009 12.6957 45.477 12.869 46.0317 12.869C46.829 12.869 47.3924 12.5353 47.7217 11.868H49.3207C49.104 12.5267 48.7097 13.0683 48.1377 13.493C47.5744 13.909 46.8724 14.117 46.0317 14.117C45.347 14.117 44.7317 13.9653 44.1857 13.662C43.6484 13.35 43.2237 12.9167 42.9117 12.362C42.6084 11.7987 42.4567 11.1487 42.4567 10.412C42.4567 9.67533 42.604 9.02967 42.8987 8.475C43.202 7.91167 43.6224 7.47833 44.1597 7.175C44.7057 6.87167 45.3297 6.72 46.0317 6.72C46.7077 6.72 47.31 6.86733 47.8387 7.162C48.3674 7.45667 48.779 7.87267 49.0737 8.41C49.3684 8.93867 49.5157 9.54967 49.5157 10.243ZM47.9687 9.775C47.96 9.229 47.765 8.79133 47.3837 8.462C47.0024 8.13267 46.53 7.968 45.9667 7.968C45.4554 7.968 45.0177 8.13267 44.6537 8.462C44.2897 8.78267 44.073 9.22033 44.0037 9.775H47.9687ZM52.8331 8.046V12.011C52.8331 12.2797 52.8938 12.4747 53.0151 12.596C53.1451 12.7087 53.3618 12.765 53.6651 12.765H54.5751V14H53.4051C52.7378 14 52.2265 13.844 51.8711 13.532C51.5158 13.22 51.3381 12.713 51.3381 12.011V8.046H50.4931V6.837H51.3381V5.056H52.8331V6.837H54.5751V8.046H52.8331ZM57.8001 8.046V12.011C57.8001 12.2797 57.8607 12.4747 57.9821 12.596C58.1121 12.7087 58.3287 12.765 58.6321 12.765H59.5421V14H58.3721C57.7047 14 57.1934 13.844 56.8381 13.532C56.4827 13.22 56.3051 12.713 56.3051 12.011V8.046H55.4601V6.837H56.3051V5.056H57.8001V6.837H59.5421V8.046H57.8001ZM61.792 5.888C61.5233 5.888 61.298 5.797 61.116 5.615C60.934 5.433 60.843 5.20767 60.843 4.939C60.843 4.67033 60.934 4.445 61.116 4.263C61.298 4.081 61.5233 3.99 61.792 3.99C62.052 3.99 62.273 4.081 62.455 4.263C62.637 4.445 62.728 4.67033 62.728 4.939C62.728 5.20767 62.637 5.433 62.455 5.615C62.273 5.797 62.052 5.888 61.792 5.888ZM62.52 6.837V14H61.038V6.837H62.52ZM68.2097 6.72C68.773 6.72 69.2757 6.837 69.7177 7.071C70.1684 7.305 70.5194 7.65167 70.7707 8.111C71.022 8.57033 71.1477 9.125 71.1477 9.775V14H69.6787V9.996C69.6787 9.35467 69.5184 8.865 69.1977 8.527C68.877 8.18033 68.4394 8.007 67.8847 8.007C67.33 8.007 66.888 8.18033 66.5587 8.527C66.238 8.865 66.0777 9.35467 66.0777 9.996V14H64.5957V6.837H66.0777V7.656C66.3204 7.36133 66.628 7.13167 67.0007 6.967C67.382 6.80233 67.785 6.72 68.2097 6.72ZM76.0541 6.72C76.6088 6.72 77.0984 6.83267 77.5231 7.058C77.9564 7.27467 78.2944 7.54767 78.5371 7.877V6.837H80.0321V14.117C80.0321 14.7757 79.8934 15.3607 79.6161 15.872C79.3388 16.392 78.9358 16.7993 78.4071 17.094C77.8871 17.3887 77.2631 17.536 76.5351 17.536C75.5644 17.536 74.7584 17.3063 74.1171 16.847C73.4758 16.3963 73.1118 15.781 73.0251 15.001H74.4941C74.6068 15.3737 74.8451 15.6727 75.2091 15.898C75.5818 16.132 76.0238 16.249 76.5351 16.249C77.1331 16.249 77.6141 16.067 77.9781 15.703C78.3508 15.339 78.5371 14.8103 78.5371 14.117V12.921C78.2858 13.259 77.9434 13.545 77.5101 13.779C77.0854 14.0043 76.6001 14.117 76.0541 14.117C75.4301 14.117 74.8581 13.961 74.3381 13.649C73.8268 13.3283 73.4194 12.8863 73.1161 12.323C72.8214 11.751 72.6741 11.1053 72.6741 10.386C72.6741 9.66667 72.8214 9.02967 73.1161 8.475C73.4194 7.92033 73.8268 7.49133 74.3381 7.188C74.8581 6.876 75.4301 6.72 76.0541 6.72ZM78.5371 10.412C78.5371 9.918 78.4331 9.489 78.2251 9.125C78.0258 8.761 77.7614 8.48367 77.4321 8.293C77.1028 8.10233 76.7474 8.007 76.3661 8.007C75.9848 8.007 75.6294 8.10233 75.3001 8.293C74.9708 8.475 74.7021 8.748 74.4941 9.112C74.2948 9.46733 74.1951 9.892 74.1951 10.386C74.1951 10.88 74.2948 11.3133 74.4941 11.686C74.7021 12.0587 74.9708 12.3447 75.3001 12.544C75.6381 12.7347 75.9934 12.83 76.3661 12.83C76.7474 12.83 77.1028 12.7347 77.4321 12.544C77.7614 12.3533 78.0258 12.076 78.2251 11.712C78.4331 11.3393 78.5371 10.906 78.5371 10.412ZM84.7086 14.117C84.1453 14.117 83.6383 14.0173 83.1876 13.818C82.7456 13.61 82.3946 13.3327 82.1346 12.986C81.8746 12.6307 81.736 12.2363 81.7186 11.803H83.2526C83.2786 12.1063 83.4216 12.362 83.6816 12.57C83.9503 12.7693 84.284 12.869 84.6826 12.869C85.0986 12.869 85.4193 12.791 85.6446 12.635C85.8786 12.4703 85.9956 12.2623 85.9956 12.011C85.9956 11.7423 85.8656 11.543 85.6056 11.413C85.3543 11.283 84.9513 11.14 84.3966 10.984C83.8593 10.8367 83.4216 10.6937 83.0836 10.555C82.7456 10.4163 82.451 10.204 82.1996 9.918C81.957 9.632 81.8356 9.255 81.8356 8.787C81.8356 8.40567 81.9483 8.059 82.1736 7.747C82.399 7.42633 82.7196 7.175 83.1356 6.993C83.5603 6.811 84.0456 6.72 84.5916 6.72C85.4063 6.72 86.0606 6.928 86.5546 7.344C87.0573 7.75133 87.326 8.31033 87.3606 9.021H85.8786C85.8526 8.70033 85.7226 8.44467 85.4886 8.254C85.2546 8.06333 84.9383 7.968 84.5396 7.968C84.1496 7.968 83.8506 8.04167 83.6426 8.189C83.4346 8.33633 83.3306 8.53133 83.3306 8.774C83.3306 8.96467 83.4 9.125 83.5386 9.255C83.6773 9.385 83.8463 9.489 84.0456 9.567C84.245 9.63633 84.5396 9.72733 84.9296 9.84C85.4496 9.97867 85.8743 10.1217 86.2036 10.269C86.5416 10.4077 86.832 10.6157 87.0746 10.893C87.3173 11.1703 87.443 11.5387 87.4516 11.998C87.4516 12.4053 87.339 12.7693 87.1136 13.09C86.8883 13.4107 86.5676 13.662 86.1516 13.844C85.7443 14.026 85.2633 14.117 84.7086 14.117Z" fill="#334D6E"/>
<path d="M5.00004 8.33325C4.08337 8.33325 3.33337 9.08325 3.33337 9.99992C3.33337 10.9166 4.08337 11.6666 5.00004 11.6666C5.91671 11.6666 6.66671 10.9166 6.66671 9.99992C6.66671 9.08325 5.91671 8.33325 5.00004 8.33325ZM15 8.33325C14.0834 8.33325 13.3334 9.08325 13.3334 9.99992C13.3334 10.9166 14.0834 11.6666 15 11.6666C15.9167 11.6666 16.6667 10.9166 16.6667 9.99992C16.6667 9.08325 15.9167 8.33325 15 8.33325ZM10 8.33325C9.08337 8.33325 8.33337 9.08325 8.33337 9.99992C8.33337 10.9166 9.08337 11.6666 10 11.6666C10.9167 11.6666 11.6667 10.9166 11.6667 9.99992C11.6667 9.08325 10.9167 8.33325 10 8.33325Z" fill="#C2CFE0"/>
</svg>
