<svg width="208" height="20" viewBox="0 0 208 20" fill="none" xmlns="http://www.w3.org/2000/svg">
<path d="M40.812 4.965V6.174H38.407V14H36.925V6.174H34.507V4.965H40.812ZM41.9489 10.386C41.9489 9.66667 42.0962 9.02967 42.3909 8.475C42.6942 7.92033 43.1016 7.49133 43.6129 7.188C44.1329 6.876 44.7049 6.72 45.3289 6.72C45.8922 6.72 46.3819 6.83267 46.7979 7.058C47.2226 7.27467 47.5606 7.54767 47.8119 7.877V6.837H49.3069V14H47.8119V12.934C47.5606 13.272 47.2182 13.5537 46.7849 13.779C46.3516 14.0043 45.8576 14.117 45.3029 14.117C44.6876 14.117 44.1242 13.961 43.6129 13.649C43.1016 13.3283 42.6942 12.8863 42.3909 12.323C42.0962 11.751 41.9489 11.1053 41.9489 10.386ZM47.8119 10.412C47.8119 9.918 47.7079 9.489 47.4999 9.125C47.3006 8.761 47.0362 8.48367 46.7069 8.293C46.3776 8.10233 46.0222 8.007 45.6409 8.007C45.2596 8.007 44.9042 8.10233 44.5749 8.293C44.2456 8.475 43.9769 8.748 43.7689 9.112C43.5696 9.46733 43.4699 9.892 43.4699 10.386C43.4699 10.88 43.5696 11.3133 43.7689 11.686C43.9769 12.0587 44.2456 12.3447 44.5749 12.544C44.9129 12.7347 45.2682 12.83 45.6409 12.83C46.0222 12.83 46.3776 12.7347 46.7069 12.544C47.0362 12.3533 47.3006 12.076 47.4999 11.712C47.7079 11.3393 47.8119 10.906 47.8119 10.412ZM53.9834 14.117C53.4201 14.117 52.9131 14.0173 52.4624 13.818C52.0204 13.61 51.6694 13.3327 51.4094 12.986C51.1494 12.6307 51.0108 12.2363 50.9934 11.803H52.5274C52.5534 12.1063 52.6964 12.362 52.9564 12.57C53.2251 12.7693 53.5588 12.869 53.9574 12.869C54.3734 12.869 54.6941 12.791 54.9194 12.635C55.1534 12.4703 55.2704 12.2623 55.2704 12.011C55.2704 11.7423 55.1404 11.543 54.8804 11.413C54.6291 11.283 54.2261 11.14 53.6714 10.984C53.1341 10.8367 52.6964 10.6937 52.3584 10.555C52.0204 10.4163 51.7258 10.204 51.4744 9.918C51.2318 9.632 51.1104 9.255 51.1104 8.787C51.1104 8.40567 51.2231 8.059 51.4484 7.747C51.6738 7.42633 51.9944 7.175 52.4104 6.993C52.8351 6.811 53.3204 6.72 53.8664 6.72C54.6811 6.72 55.3354 6.928 55.8294 7.344C56.3321 7.75133 56.6008 8.31033 56.6354 9.021H55.1534C55.1274 8.70033 54.9974 8.44467 54.7634 8.254C54.5294 8.06333 54.2131 7.968 53.8144 7.968C53.4244 7.968 53.1254 8.04167 52.9174 8.189C52.7094 8.33633 52.6054 8.53133 52.6054 8.774C52.6054 8.96467 52.6748 9.125 52.8134 9.255C52.9521 9.385 53.1211 9.489 53.3204 9.567C53.5198 9.63633 53.8144 9.72733 54.2044 9.84C54.7244 9.97867 55.1491 10.1217 55.4784 10.269C55.8164 10.4077 56.1068 10.6157 56.3494 10.893C56.5921 11.1703 56.7178 11.5387 56.7264 11.998C56.7264 12.4053 56.6138 12.7693 56.3884 13.09C56.1631 13.4107 55.8424 13.662 55.4264 13.844C55.0191 14.026 54.5381 14.117 53.9834 14.117ZM61.2918 10.425L64.5938 14H62.5918L59.9398 10.919V14H58.4578V4.38H59.9398V9.97L62.5398 6.837H64.5938L61.2918 10.425ZM68.386 14.117C67.8227 14.117 67.3157 14.0173 66.865 13.818C66.423 13.61 66.072 13.3327 65.812 12.986C65.552 12.6307 65.4133 12.2363 65.396 11.803H66.93C66.956 12.1063 67.099 12.362 67.359 12.57C67.6277 12.7693 67.9613 12.869 68.36 12.869C68.776 12.869 69.0967 12.791 69.322 12.635C69.556 12.4703 69.673 12.2623 69.673 12.011C69.673 11.7423 69.543 11.543 69.283 11.413C69.0317 11.283 68.6287 11.14 68.074 10.984C67.5367 10.8367 67.099 10.6937 66.761 10.555C66.423 10.4163 66.1283 10.204 65.877 9.918C65.6343 9.632 65.513 9.255 65.513 8.787C65.513 8.40567 65.6257 8.059 65.851 7.747C66.0763 7.42633 66.397 7.175 66.813 6.993C67.2377 6.811 67.723 6.72 68.269 6.72C69.0837 6.72 69.738 6.928 70.232 7.344C70.7347 7.75133 71.0033 8.31033 71.038 9.021H69.556C69.53 8.70033 69.4 8.44467 69.166 8.254C68.932 8.06333 68.6157 7.968 68.217 7.968C67.827 7.968 67.528 8.04167 67.32 8.189C67.112 8.33633 67.008 8.53133 67.008 8.774C67.008 8.96467 67.0773 9.125 67.216 9.255C67.3547 9.385 67.5237 9.489 67.723 9.567C67.9223 9.63633 68.217 9.72733 68.607 9.84C69.127 9.97867 69.5517 10.1217 69.881 10.269C70.219 10.4077 70.5093 10.6157 70.752 10.893C70.9947 11.1703 71.1203 11.5387 71.129 11.998C71.129 12.4053 71.0163 12.7693 70.791 13.09C70.5657 13.4107 70.245 13.662 69.829 13.844C69.4217 14.026 68.9407 14.117 68.386 14.117Z" fill="#334D6E"/>
<path d="M2.49996 3.2H16.6666C16.7384 3.2 16.8 3.2616 16.8 3.33333V8.33333C16.8 8.40507 16.7384 8.46667 16.6666 8.46667H2.49996C2.42823 8.46667 2.36663 8.40507 2.36663 8.33333V3.33333C2.36663 3.2616 2.42823 3.2 2.49996 3.2ZM2.49996 11.5333H16.6666C16.7384 11.5333 16.8 11.5949 16.8 11.6667V16.6667C16.8 16.7384 16.7384 16.8 16.6666 16.8H2.49996C2.42823 16.8 2.36663 16.7384 2.36663 16.6667V11.6667C2.36663 11.5949 2.42823 11.5333 2.49996 11.5333Z" stroke="#C2CFE0" stroke-width="1.4"/>
</svg>
